  0
SECTION
  2
HEADER
  9
$ACADVER
  1
AC1015
  9
$ACADMAINTVER
 70
     6
  9
$DWGCODEPAGE
  3
ANSI_1252
  9
$INSBASE
 10
0.0
 20
0.0
 30
0.0
  9
$EXTMIN
 10
-28.2
 20
-28.30625
 30
0.0
  9
$EXTMAX
 10
28.2
 20
28.2
 30
0.0
  9
$LIMMIN
 10
0.0
 20
0.0
  9
$LIMMAX
 10
420.0
 20
297.0
  9
$ORTHOMODE
 70
     0
  9
$REGENMODE
 70
     1
  9
$FILLMODE
 70
     1
  9
$QTEXTMODE
 70
     0
  9
$MIRRTEXT
 70
     1
  9
$LTSCALE
 40
1.0
  9
$ATTMODE
 70
     1
  9
$TEXTSIZE
 40
3.5
  9
$TRACEWID
 40
1.0
  9
$TEXTSTYLE
  7
Standard
  9
$CLAYER
  8
0
  9
$CELTYPE
  6
ByLayer
  9
$CECOLOR
 62
   256
  9
$CELTSCALE
 40
1.0
  9
$DISPSILH
 70
     0
  9
$DIMSCALE
 40
1.0
  9
$DIMASZ
 40
3.302
  9
$DIMEXO
 40
0.0
  9
$DIMDLI
 40
3.75
  9
$DIMRND
 40
0.0
  9
$DIMDLE
 40
0.0
  9
$DIMEXE
 40
1.0
  9
$DIMTP
 40
0.0
  9
$DIMTM
 40
0.0
  9
$DIMTXT
 40
3.5
  9
$DIMCEN
 40
2.5
  9
$DIMTSZ
 40
0.0
  9
$DIMTOL
 70
     0
  9
$DIMLIM
 70
     0
  9
$DIMTIH
 70
     1
  9
$DIMTOH
 70
     1
  9
$DIMSE1
 70
     0
  9
$DIMSE2
 70
     0
  9
$DIMTAD
 70
     1
  9
$DIMZIN
 70
     1
  9
$DIMBLK
  1

  9
$DIMASO
 70
     1
  9
$DIMSHO
 70
     1
  9
$DIMPOST
  1

  9
$DIMAPOST
  1

  9
$DIMALT
 70
     0
  9
$DIMALTD
 70
     3
  9
$DIMALTF
 40
0.0393700787
  9
$DIMLFAC
 40
1.0
  9
$DIMTOFL
 70
     1
  9
$DIMTVP
 40
0.0
  9
$DIMTIX
 70
     0
  9
$DIMSOXD
 70
     0
  9
$DIMSAH
 70
     0
  9
$DIMBLK1
  1

  9
$DIMBLK2
  1

  9
$DIMSTYLE
  2
ISO-25
  9
$DIMCLRD
 70
     0
  9
$DIMCLRE
 70
     0
  9
$DIMCLRT
 70
     0
  9
$DIMTFAC
 40
1.0
  9
$DIMGAP
 40
1.524
  9
$DIMJUST
 70
     0
  9
$DIMSD1
 70
     0
  9
$DIMSD2
 70
     0
  9
$DIMTOLJ
 70
     0
  9
$DIMTZIN
 70
     1
  9
$DIMALTZ
 70
     0
  9
$DIMALTTZ
 70
     0
  9
$DIMUPT
 70
     0
  9
$DIMDEC
 70
     2
  9
$DIMTDEC
 70
     2
  9
$DIMALTU
 70
     2
  9
$DIMALTTD
 70
     3
  9
$DIMTXSTY
  7
Standard
  9
$DIMAUNIT
 70
     0
  9
$DIMADEC
 70
     2
  9
$DIMALTRND
 40
0.0
  9
$DIMAZIN
 70
     0
  9
$DIMDSEP
 70
    44
  9
$DIMATFIT
 70
     3
  9
$DIMFRAC
 70
     0
  9
$DIMLDRBLK
  1

  9
$DIMLUNIT
 70
     2
  9
$DIMLWD
 70
    -2
  9
$DIMLWE
 70
    -2
  9
$DIMTMOVE
 70
     0
  9
$LUNITS
 70
     2
  9
$LUPREC
 70
     2
  9
$SKETCHINC
 40
1.0
  9
$FILLETRAD
 40
0.0
  9
$AUNITS
 70
     0
  9
$AUPREC
 70
     2
  9
$MENU
  1
.
  9
$ELEVATION
 40
0.0
  9
$PELEVATION
 40
0.0
  9
$THICKNESS
 40
0.0
  9
$LIMCHECK
 70
     0
  9
$CHAMFERA
 40
0.0
  9
$CHAMFERB
 40
0.0
  9
$CHAMFERC
 40
0.0
  9
$CHAMFERD
 40
0.0
  9
$SKPOLY
 70
     0
  9
$TDCREATE
 40
2461147.757460787
  9
$TDUCREATE
 40
2461147.528294121
  9
$TDUPDATE
 40
2461147.757507998
  9
$TDUUPDATE
 40
2461147.528341331
  9
$TDINDWG
 40
0.0000000116
  9
$TDUSRTIMER
 40
0.0000000116
  9
$USRTIMER
 70
     1
  9
$ANGBASE
 50
0.0
  9
$ANGDIR
 70
     0
  9
$PDMODE
 70
     0
  9
$PDSIZE
 40
-1.0
  9
$PLINEWID
 40
0.0
  9
$SPLFRAME
 70
     0
  9
$SPLINETYPE
 70
     6
  9
$SPLINESEGS
 70
     8
  9
$HANDSEED
  5
28A
  9
$SURFTAB1
 70
     6
  9
$SURFTAB2
 70
     6
  9
$SURFTYPE
 70
     6
  9
$SURFU
 70
     6
  9
$SURFV
 70
     6
  9
$UCSBASE
  2

  9
$UCSNAME
  2

  9
$UCSORG
 10
0.0
 20
0.0
 30
0.0
  9
$UCSXDIR
 10
1.0
 20
0.0
 30
0.0
  9
$UCSYDIR
 10
0.0
 20
1.0
 30
0.0
  9
$UCSORTHOREF
  2

  9
$UCSORTHOVIEW
 70
     0
  9
$UCSORGTOP
 10
0.0
 20
0.0
 30
0.0
  9
$UCSORGBOTTOM
 10
0.0
 20
0.0
 30
0.0
  9
$UCSORGLEFT
 10
0.0
 20
0.0
 30
0.0
  9
$UCSORGRIGHT
 10
0.0
 20
0.0
 30
0.0
  9
$UCSORGFRONT
 10
0.0
 20
0.0
 30
0.0
  9
$UCSORGBACK
 10
0.0
 20
0.0
 30
0.0
  9
$PUCSBASE
  2

  9
$PUCSNAME
  2

  9
$PUCSORG
 10
0.0
 20
0.0
 30
0.0
  9
$PUCSXDIR
 10
1.0
 20
0.0
 30
0.0
  9
$PUCSYDIR
 10
0.0
 20
1.0
 30
0.0
  9
$PUCSORTHOREF
  2

  9
$PUCSORTHOVIEW
 70
     0
  9
$PUCSORGTOP
 10
0.0
 20
0.0
 30
0.0
  9
$PUCSORGBOTTOM
 10
0.0
 20
0.0
 30
0.0
  9
$PUCSORGLEFT
 10
0.0
 20
0.0
 30
0.0
  9
$PUCSORGRIGHT
 10
0.0
 20
0.0
 30
0.0
  9
$PUCSORGFRONT
 10
0.0
 20
0.0
 30
0.0
  9
$PUCSORGBACK
 10
0.0
 20
0.0
 30
0.0
  9
$USERI1
 70
     0
  9
$USERI2
 70
     0
  9
$USERI3
 70
     0
  9
$USERI4
 70
     0
  9
$USERI5
 70
     0
  9
$USERR1
 40
0.0
  9
$USERR2
 40
0.0
  9
$USERR3
 40
0.0
  9
$USERR4
 40
0.0
  9
$USERR5
 40
0.0
  9
$WORLDVIEW
 70
     1
  9
$SHADEDGE
 70
     3
  9
$SHADEDIF
 70
    70
  9
$TILEMODE
 70
     1
  9
$MAXACTVP
 70
    64
  9
$PINSBASE
 10
0.0
 20
0.0
 30
0.0
  9
$PLIMCHECK
 70
     0
  9
$PEXTMIN
 10
1.0000000000E+20
 20
1.0000000000E+20
 30
1.0000000000E+20
  9
$PEXTMAX
 10
-1.0000000000E+20
 20
-1.0000000000E+20
 30
-1.0000000000E+20
  9
$PLIMMIN
 10
0.0
 20
0.0
  9
$PLIMMAX
 10
420.0
 20
297.0
  9
$UNITMODE
 70
     0
  9
$VISRETAIN
 70
     1
  9
$PLINEGEN
 70
     0
  9
$PSLTSCALE
 70
     1
  9
$TREEDEPTH
 70
  3020
  9
$CMLSTYLE
  2
Standard
  9
$CMLJUST
 70
     0
  9
$CMLSCALE
 40
20.0
  9
$PROXYGRAPHICS
 70
     1
  9
$MEASUREMENT
 70
     1
  9
$CELWEIGHT
370
    -1
  9
$ENDCAPS
280
     0
  9
$JOINSTYLE
280
     0
  9
$LWDISPLAY
290
     1
  9
$INSUNITS
 70
     4
  9
$HYPERLINKBASE
  1

  9
$STYLESHEET
  1

  9
$XEDIT
290
     1
  9
$CEPSNTYPE
380
     0
  9
$PSTYLEMODE
290
     1
  9
$FINGERPRINTGUID
  2
{00a0647e-f5eb-4cf6-8276-3deed8785984}
  9
$VERSIONGUID
  2
{FAEB1C32-E019-11D5-929B-00C0DF256EC4}
  9
$EXTNAMES
290
     1
  9
$PSVPSCALE
 40
0.0
  9
$OLESTARTUP
290
     0
  0
ENDSEC
  0
SECTION
  2
CLASSES
  0
CLASS
  1
ACDBDICTIONARYWDFLT
  2
AcDbDictionaryWithDefault
  3
ObjectDBX Classes
 90
        0
280
     0
281
     0
  0
CLASS
  1
VISUALSTYLE
  2
AcDbVisualStyle
  3
ObjectDBX Classes
 90
     4095
280
     0
281
     0
  0
CLASS
  1
MATERIAL
  2
AcDbMaterial
  3
ObjectDBX Classes
 90
     1153
280
     0
281
     0
  0
CLASS
  1
SCALE
  2
AcDbScale
  3
ObjectDBX Classes
 90
     1153
280
     0
281
     0
  0
CLASS
  1
TABLESTYLE
  2
AcDbTableStyle
  3
ObjectDBX Classes
 90
     4095
280
     0
281
     0
  0
CLASS
  1
MLEADERSTYLE
  2
AcDbMLeaderStyle
  3
ACDB_MLEADERSTYLE_CLASS
 90
     4095
280
     0
281
     0
  0
CLASS
  1
SUN
  2
AcDbSun
  3
SCENEOE
 90
     1153
280
     0
281
     0
  0
CLASS
  1
ACDBPLACEHOLDER
  2
AcDbPlaceHolder
  3
ObjectDBX Classes
 90
        0
280
     0
281
     0
  0
CLASS
  1
LAYOUT
  2
AcDbLayout
  3
ObjectDBX Classes
 90
        0
280
     0
281
     0
  0
ENDSEC
  0
SECTION
  2
TABLES
  0
TABLE
  2
VPORT
  5
8
330
0
100
AcDbSymbolTable
 70
     1
  0
VPORT
  5
29
330
8
100
AcDbSymbolTableRecord
100
AcDbViewportTableRecord
  2
*Active
 70
     0
 10
0.0
 20
0.0
 11
1.0
 21
1.0
 12
0.0
 22
-0.053125
 13
0.0
 23
0.0
 14
10.0
 24
10.0
 15
10.0
 25
10.0
 16
0.0
 26
0.0
 36
1.0
 17
0.0
 27
0.0
 37
0.0
 40
57.636375
 41
0.998119677
 42
50.0
 43
0.0
 44
0.0
 50
0.0
 51
0.0
 71
     0
 72
   100
 73
     1
 74
     3
 75
     0
 76
     0
 77
     0
 78
     0
281
     0
 65
     1
110
0.0
120
0.0
130
0.0
111
1.0
121
0.0
131
0.0
112
0.0
122
1.0
132
0.0
 79
     0
146
0.0
  0
ENDTAB
  0
TABLE
  2
LTYPE
  5
5
330
0
100
AcDbSymbolTable
 70
     6
  0
LTYPE
  5
14
330
5
100
AcDbSymbolTableRecord
100
AcDbLinetypeTableRecord
  2
ByBlock
 70
     0
  3

 72
    65
 73
     0
 40
0.0
  0
LTYPE
  5
15
330
5
100
AcDbSymbolTableRecord
100
AcDbLinetypeTableRecord
  2
ByLayer
 70
     0
  3

 72
    65
 73
     0
 40
0.0
  0
LTYPE
  5
16
330
5
100
AcDbSymbolTableRecord
100
AcDbLinetypeTableRecord
  2
Continuous
 70
     0
  3
Solid line
 72
    65
 73
     0
 40
0.0
  0
LTYPE
  5
5E
330
5
100
AcDbSymbolTableRecord
100
AcDbLinetypeTableRecord
  2
HIDDEN
 70
     0
  3
Hidden __ __ __ __ __ __ __ __ __ __ __ __ __ __
 72
    65
 73
     2
 40
1.905
 49
1.27
 74
     0
 49
-0.635
 74
     0
  0
LTYPE
  5
5F
330
5
100
AcDbSymbolTableRecord
100
AcDbLinetypeTableRecord
  2
PHANTOM
 70
     0
  3
Phantom ______  __  __  ______  __  __  ______
 72
    65
 73
     6
 40
12.7
 49
6.35
 74
     0
 49
-1.27
 74
     0
 49
1.27
 74
     0
 49
-1.27
 74
     0
 49
1.27
 74
     0
 49
-1.27
 74
     0
  0
LTYPE
  5
60
330
5
100
AcDbSymbolTableRecord
100
AcDbLinetypeTableRecord
  2
CENTER
 70
     0
  3
Center ____ _ ____ _ ____ _ ____ _ ____ _ ____
 72
    65
 73
     4
 40
10.16
 49
6.35
 74
     0
 49
-1.27
 74
     0
 49
1.27
 74
     0
 49
-1.27
 74
     0
  0
LTYPE
  5
61
330
5
100
AcDbSymbolTableRecord
100
AcDbLinetypeTableRecord
  2
CENTERX2
 70
     0
  3
Center (2x) ________  __  ________  __  _____
 72
    65
 73
     4
 40
20.32
 49
12.7
 74
     0
 49
-2.54
 74
     0
 49
2.54
 74
     0
 49
-2.54
 74
     0
  0
LTYPE
  5
62
330
5
100
AcDbSymbolTableRecord
100
AcDbLinetypeTableRecord
  2
DOT2
 70
     0
  3
Dot (.5x) ........................................
 72
    65
 73
     2
 40
0.635
 49
0.0
 74
     0
 49
-0.635
 74
     0
  0
ENDTAB
  0
TABLE
  2
LAYER
  5
2
330
0
100
AcDbSymbolTable
 70
     1
  0
LAYER
  5
10
330
2
100
AcDbSymbolTableRecord
100
AcDbLayerTableRecord
  2
0
 70
     0
 62
     7
  6
Continuous
370
    -3
390
F
  0
ENDTAB
  0
TABLE
  2
STYLE
  5
3
330
0
100
AcDbSymbolTable
 70
     1
  0
STYLE
  5
11
330
3
100
AcDbSymbolTableRecord
100
AcDbTextStyleTableRecord
  2
Standard
 70
     0
 40
0.0
 41
1.0
 50
0.0
 71
     0
 42
3.5
  3
txt
  4

  0
ENDTAB
  0
TABLE
  2
VIEW
  5
6
330
0
100
AcDbSymbolTable
 70
     0
  0
ENDTAB
  0
TABLE
  2
UCS
  5
7
330
0
100
AcDbSymbolTable
 70
     0
  0
ENDTAB
  0
TABLE
  2
APPID
  5
9
330
0
100
AcDbSymbolTable
 70
     1
  0
APPID
  5
12
330
9
100
AcDbSymbolTableRecord
100
AcDbRegAppTableRecord
  2
ACAD
 70
     0
  0
ENDTAB
  0
TABLE
  2
DIMSTYLE
  5
A
330
0
100
AcDbSymbolTable
 70
     1
100
AcDbDimStyleTable
  0
DIMSTYLE
105
27
330
A
100
AcDbSymbolTableRecord
100
AcDbDimStyleTableRecord
  2
ISO-25
 70
     0
 41
2.5
 42
0.625
 43
3.75
 44
1.25
 73
     0
 74
     0
 77
     1
 78
     8
140
2.5
141
2.5
143
0.0393700787
147
0.625
171
     3
172
     1
178
     0
271
     2
272
     2
274
     3
278
    44
283
     0
284
     8
340
11
  0
ENDTAB
  0
TABLE
  2
BLOCK_RECORD
  5
1
330
0
100
AcDbSymbolTable
 70
     1
  0
BLOCK_RECORD
  5
1F
330
1
100
AcDbSymbolTableRecord
100
AcDbBlockTableRecord
  2
*Model_Space
340
22
  0
BLOCK_RECORD
  5
1B
330
1
100
AcDbSymbolTableRecord
100
AcDbBlockTableRecord
  2
*Paper_Space
340
1E
  0
BLOCK_RECORD
  5
23
330
1
100
AcDbSymbolTableRecord
100
AcDbBlockTableRecord
  2
*Paper_Space0
340
26
  0
ENDTAB
  0
ENDSEC
  0
SECTION
  2
BLOCKS
  0
BLOCK
  5
20
330
1F
100
AcDbEntity
  8
0
100
AcDbBlockBegin
  2
*Model_Space
 70
     0
 10
0.0
 20
0.0
 30
0.0
  3
*Model_Space
  1

  0
ENDBLK
  5
21
330
1F
100
AcDbEntity
  8
0
100
AcDbBlockEnd
  0
BLOCK
  5
1C
330
1B
100
AcDbEntity
 67
     1
  8
0
100
AcDbBlockBegin
  2
*Paper_Space
 70
     0
 10
0.0
 20
0.0
 30
0.0
  3
*Paper_Space
  1

  0
ENDBLK
  5
1D
330
1B
100
AcDbEntity
 67
     1
  8
0
100
AcDbBlockEnd
  0
BLOCK
  5
24
330
23
100
AcDbEntity
  8
0
100
AcDbBlockBegin
  2
*Paper_Space0
 70
     0
 10
0.0
 20
0.0
 30
0.0
  3
*Paper_Space0
  1

  0
ENDBLK
  5
25
330
23
100
AcDbEntity
  8
0
100
AcDbBlockEnd
  0
ENDSEC
  0
SECTION
  2
ENTITIES
  0
CIRCLE
  5
63
330
1F
100
AcDbEntity
  8
0
  6
Continuous
 62
     7
100
AcDbCircle
 10
-16.65
 20
25.7
 30
0.0
 40
0.9595000000000691
  0
CIRCLE
  5
64
330
1F
100
AcDbEntity
  8
0
  6
Continuous
 62
     7
100
AcDbCircle
 10
25.7
 20
16.65
 30
0.0
 40
0.1500122702193557
  0
CIRCLE
  5
65
330
1F
100
AcDbEntity
  8
0
  6
Continuous
 62
     7
100
AcDbCircle
 10
25.7
 20
16.65
 30
0.0
 40
0.9594999999984581
  0
CIRCLE
  5
66
330
1F
100
AcDbEntity
  8
0
  6
Continuous
 62
     7
100
AcDbCircle
 10
16.8
 20
-25.7
 30
0.0
 40
0.8094999999966772
  0
CIRCLE
  5
67
330
1F
100
AcDbEntity
  8
0
  6
Continuous
 62
     7
100
AcDbCircle
 10
-25.7
 20
-16.8
 30
0.0
 40
0.8094999999992304
  0
ARC
  5
68
330
1F
100
AcDbEntity
  8
0
  6
Continuous
 62
     7
100
AcDbCircle
 10
-25.7
 20
-16.65
 30
0.0
 40
2.0
100
AcDbArc
 50
180.0
 51
270.0
  0
ARC
  5
69
330
1F
100
AcDbEntity
  8
0
  6
Continuous
 62
     7
100
AcDbCircle
 10
-23.15
 20
-23.15
 30
0.0
 40
4.500000000000004
100
AcDbArc
 50
0.0
 51
90.0
  0
ARC
  5
6A
330
1F
100
AcDbEntity
  8
0
  6
Continuous
 62
     7
100
AcDbCircle
 10
-16.65
 20
-25.7
 30
0.0
 40
2.0
100
AcDbArc
 50
180.0
 51
270.0
  0
ARC
  5
6B
330
1F
100
AcDbEntity
  8
0
  6
Continuous
 62
     7
100
AcDbCircle
 10
16.65
 20
-25.7
 30
0.0
 40
2.0
100
AcDbArc
 50
270.0
 51
0.0
  0
ARC
  5
6C
330
1F
100
AcDbEntity
  8
0
  6
Continuous
 62
     7
100
AcDbCircle
 10
23.15
 20
-23.15
 30
0.0
 40
4.500000000000004
100
AcDbArc
 50
90.0
 51
180.0
  0
ARC
  5
6D
330
1F
100
AcDbEntity
  8
0
  6
Continuous
 62
     7
100
AcDbCircle
 10
25.7
 20
-16.65
 30
0.0
 40
2.0
100
AcDbArc
 50
270.0
 51
0.0
  0
ARC
  5
6E
330
1F
100
AcDbEntity
  8
0
  6
Continuous
 62
     7
100
AcDbCircle
 10
25.7
 20
16.65
 30
0.0
 40
2.0
100
AcDbArc
 50
0.0
 51
90.0
  0
ARC
  5
6F
330
1F
100
AcDbEntity
  8
0
  6
Continuous
 62
     7
100
AcDbCircle
 10
23.15
 20
23.15
 30
0.0
 40
4.500000000000004
100
AcDbArc
 50
180.0
 51
270.0
  0
ARC
  5
70
330
1F
100
AcDbEntity
  8
0
  6
Continuous
 62
     7
100
AcDbCircle
 10
16.65
 20
25.7
 30
0.0
 40
2.0
100
AcDbArc
 50
0.0
 51
90.0
  0
ARC
  5
71
330
1F
100
AcDbEntity
  8
0
  6
Continuous
 62
     7
100
AcDbCircle
 10
-16.65
 20
25.7
 30
0.0
 40
2.0
100
AcDbArc
 50
90.0
 51
180.0
  0
ARC
  5
72
330
1F
100
AcDbEntity
  8
0
  6
Continuous
 62
     7
100
AcDbCircle
 10
-23.15
 20
23.15
 30
0.0
 40
4.500000000000004
100
AcDbArc
 50
270.0
 51
0.0
  0
ARC
  5
73
330
1F
100
AcDbEntity
  8
0
  6
Continuous
 62
     7
100
AcDbCircle
 10
-25.7
 20
16.65
 30
0.0
 40
2.0
100
AcDbArc
 50
90.0
 51
180.0
  0
LINE
  5
74
330
1F
100
AcDbEntity
  8
0
  6
Continuous
 62
     7
100
AcDbLine
 10
-25.7
 20
-18.65
 30
0.0
 11
-23.15
 21
-18.65
 31
0.0
  0
LINE
  5
75
330
1F
100
AcDbEntity
  8
0
  6
Continuous
 62
     7
100
AcDbLine
 10
-18.65
 20
-23.15
 30
0.0
 11
-18.65
 21
-25.7
 31
0.0
  0
LINE
  5
76
330
1F
100
AcDbEntity
  8
0
  6
Continuous
 62
     7
100
AcDbLine
 10
-16.65
 20
-27.7
 30
0.0
 11
16.65
 21
-27.7
 31
0.0
  0
LINE
  5
77
330
1F
100
AcDbEntity
  8
0
  6
Continuous
 62
     7
100
AcDbLine
 10
18.65
 20
-25.7
 30
0.0
 11
18.65
 21
-23.15
 31
0.0
  0
LINE
  5
78
330
1F
100
AcDbEntity
  8
0
  6
Continuous
 62
     7
100
AcDbLine
 10
23.15
 20
-18.65
 30
0.0
 11
25.7
 21
-18.65
 31
0.0
  0
LINE
  5
79
330
1F
100
AcDbEntity
  8
0
  6
Continuous
 62
     7
100
AcDbLine
 10
27.7
 20
-16.65
 30
0.0
 11
27.7
 21
16.65
 31
0.0
  0
LINE
  5
7A
330
1F
100
AcDbEntity
  8
0
  6
Continuous
 62
     7
100
AcDbLine
 10
25.7
 20
18.65
 30
0.0
 11
23.15
 21
18.65
 31
0.0
  0
LINE
  5
7B
330
1F
100
AcDbEntity
  8
0
  6
Continuous
 62
     7
100
AcDbLine
 10
18.65
 20
23.15
 30
0.0
 11
18.65
 21
25.7
 31
0.0
  0
LINE
  5
7C
330
1F
100
AcDbEntity
  8
0
  6
Continuous
 62
     7
100
AcDbLine
 10
16.65
 20
27.7
 30
0.0
 11
-16.65
 21
27.7
 31
0.0
  0
LINE
  5
7D
330
1F
100
AcDbEntity
  8
0
  6
Continuous
 62
     7
100
AcDbLine
 10
-18.65
 20
25.7
 30
0.0
 11
-18.65
 21
23.15
 31
0.0
  0
LINE
  5
7E
330
1F
100
AcDbEntity
  8
0
  6
Continuous
 62
     7
100
AcDbLine
 10
-23.15
 20
18.65
 30
0.0
 11
-25.7
 21
18.65
 31
0.0
  0
LINE
  5
7F
330
1F
100
AcDbEntity
  8
0
  6
Continuous
 62
     7
100
AcDbLine
 10
-27.7
 20
16.65
 30
0.0
 11
-27.7
 21
-16.65
 31
0.0
  0
SPLINE
  5
89
330
1F
100
AcDbEntity
  8
0
  6
Continuous
 62
     7
370
    25
100
AcDbSpline
210
0.0
220
0.0
230
1.0
 70
    24
 71
     3
 72
     9
 73
     5
 74
     0
 42
0.00000001
 43
0.00000001
 40
0.0
 40
0.0
 40
0.0
 40
0.0
 40
0.5812351708932175
 40
1.0
 40
1.0
 40
1.0
 40
1.0
 10
-0.30710403397
 20
-28.3
 30
0.0
 10
-0.2576897678905054
 20
-28.3
 30
0.0
 10
-0.1726738078212669
 20
-28.3
 30
0.0
 10
-0.1038549927506416
 20
-28.29999999999999
 30
0.0
 10
-0.07503609341826
 20
-28.3
 30
0.0
  0
SPLINE
  5
8D
330
1F
100
AcDbEntity
  8
0
  6
Continuous
 62
     7
370
    25
100
AcDbSpline
210
0.0
220
0.0
230
1.0
 70
    24
 71
     3
 72
     9
 73
     5
 74
     0
 42
0.00000001
 43
0.00000001
 40
0.0
 40
0.0
 40
0.0
 40
0.0
 40
0.5416613126512192
 40
1.0
 40
1.0
 40
1.0
 40
1.0
 10
6.0231507431
 20
-28.3
 30
0.0
 10
6.076609006918799
 20
-28.29999999999999
 30
0.0
 10
6.175302161792904
 20
-28.3
 30
0.0
 10
6.291120017636908
 20
-28.3
 30
0.0
 10
6.344203821656
 20
-28.3
 30
0.0
  0
SPLINE
  5
8F
330
1F
100
AcDbEntity
  8
0
  6
Continuous
 62
     7
370
    25
100
AcDbSpline
210
0.0
220
0.0
230
1.0
 70
    24
 71
     3
 72
     9
 73
     5
 74
     0
 42
0.00000001
 43
0.00000001
 40
0.0
 40
0.0
 40
0.0
 40
0.0
 40
0.5965964750011782
 40
1.0
 40
1.0
 40
1.0
 40
1.0
 10
6.344203821655999
 20
-28.3
 30
0.0
 10
6.41143638579213
 20
-28.3
 30
0.0
 10
6.52412991810976
 20
-28.3
 30
0.0
 10
6.623589077259554
 20
-28.3
 30
0.0
 10
6.663711252654
 20
-28.3
 30
0.0
  0
SPLINE
  5
91
330
1F
100
AcDbEntity
  8
0
  6
Continuous
 62
     7
370
    25
100
AcDbSpline
210
0.0
220
0.0
230
1.0
 70
    24
 71
     3
 72
     9
 73
     5
 74
     0
 42
0.00000001
 43
0.00000001
 40
0.0
 40
0.0
 40
0.0
 40
0.0
 40
0.5812351708929964
 40
1.0
 40
1.0
 40
1.0
 40
1.0
 10
-1.250390658174
 20
-28.3
 30
0.0
 10
-1.200976392094484
 20
-28.29999999999999
 30
0.0
 10
-1.115960432025177
 20
-28.29999999999999
 30
0.0
 10
-1.047141616954443
 20
-28.3
 30
0.0
 10
-1.018322717622
 20
-28.3
 30
0.0
  0
SPLINE
  5
95
330
1F
100
AcDbEntity
  8
0
  6
Continuous
 62
     7
370
    25
100
AcDbSpline
210
0.0
220
0.0
230
1.0
 70
    24
 71
     3
 72
     9
 73
     5
 74
     0
 42
0.00000001
 43
0.00000001
 40
0.0
 40
0.0
 40
0.0
 40
0.0
 40
0.547316696224403
 40
1.0
 40
1.0
 40
1.0
 40
1.0
 10
-2.896781316348
 20
-28.3
 30
0.0
 10
-2.857167119587575
 20
-28.3
 30
0.0
 10
-2.784788189740016
 20
-28.29999999999999
 30
0.0
 10
-2.701332938827499
 20
-28.3
 30
0.0
 10
-2.663554140127
 20
-28.3
 30
0.0
  0
SPLINE
  5
97
330
1F
100
AcDbEntity
  8
0
  6
Continuous
 62
     7
370
    25
100
AcDbSpline
210
0.0
220
0.0
230
1.0
 70
    24
 71
     3
 72
     9
 73
     5
 74
     0
 42
0.00000001
 43
0.00000001
 40
0.0
 40
0.0
 40
0.0
 40
0.0
 40
0.5812351708929978
 40
1.0
 40
1.0
 40
1.0
 40
1.0
 10
-2.663554140127
 20
-28.3
 30
0.0
 10
-2.614139874047484
 20
-28.3
 30
0.0
 10
-2.529123913978176
 20
-28.29999999999999
 30
0.0
 10
-2.460305098907443
 20
-28.3
 30
0.0
 10
-2.431486199575
 20
-28.3
 30
0.0
  0
SPLINE
  5
9A
330
1F
100
AcDbEntity
  8
0
  6
Continuous
 62
     7
370
    25
100
AcDbSpline
210
0.0
220
0.0
230
1.0
 70
    24
 71
     3
 72
     9
 73
     5
 74
     0
 42
0.00000001
 43
0.00000001
 40
0.0
 40
0.0
 40
0.0
 40
0.0
 40
0.5473166962244003
 40
1.0
 40
1.0
 40
1.0
 40
1.0
 10
-3.840067940552
 20
-28.3
 30
0.0
 10
-3.800453743791576
 20
-28.3
 30
0.0
 10
-3.728074813944016
 20
-28.3
 30
0.0
 10
-3.6446195630315
 20
-28.3
 30
0.0
 10
-3.606840764331
 20
-28.3
 30
0.0
  0
SPLINE
  5
9D
330
1F
100
AcDbEntity
  8
0
  6
Continuous
 62
     7
370
    25
100
AcDbSpline
210
0.0
220
0.0
230
1.0
 70
    24
 71
     3
 72
     9
 73
     5
 74
     0
 42
0.00000001
 43
0.00000001
 40
0.0
 40
0.0
 40
0.0
 40
0.0
 40
0.5812351708929978
 40
1.0
 40
1.0
 40
1.0
 40
1.0
 10
-5.963290870488001
 20
-28.3
 30
0.0
 10
-5.913876604408485
 20
-28.3
 30
0.0
 10
-5.828860644339176
 20
-28.29999999999999
 30
0.0
 10
-5.760041829268443
 20
-28.3
 30
0.0
 10
-5.731222929936
 20
-28.3
 30
0.0
  0
SPLINE
  5
9F
330
1F
100
AcDbEntity
  8
0
  6
Continuous
 62
     7
370
    25
100
AcDbSpline
210
0.0
220
0.0
230
1.0
 70
    24
 71
     3
 72
     9
 73
     5
 74
     0
 42
0.00000001
 43
0.00000001
 40
0.0
 40
0.0
 40
0.0
 40
0.0
 40
0.5473166962244028
 40
1.0
 40
1.0
 40
1.0
 40
1.0
 10
-1.483617834395
 20
-28.3
 30
0.0
 10
-1.444003637634576
 20
-28.29999999999999
 30
0.0
 10
-1.371624707787015
 20
-28.29999999999999
 30
0.0
 10
-1.288169456874499
 20
-28.3
 30
0.0
 10
-1.250390658174
 20
-28.3
 30
0.0
  0
SPLINE
  5
A1
330
1F
100
AcDbEntity
  8
0
  6
Continuous
 62
     7
370
    25
100
AcDbSpline
210
0.0
220
0.0
230
1.0
 70
    24
 71
     3
 72
     9
 73
     5
 74
     0
 42
0.00000001
 43
0.00000001
 40
0.0
 40
0.0
 40
0.0
 40
0.0
 40
0.5473166962244027
 40
1.0
 40
1.0
 40
1.0
 40
1.0
 10
-0.540331210191
 20
-28.3
 30
0.0
 10
-0.5007170134305756
 20
-28.3
 30
0.0
 10
-0.4283380835830155
 20
-28.3
 30
0.0
 10
-0.3448828326704994
 20
-28.3
 30
0.0
 10
-0.30710403397
 20
-28.3
 30
0.0
  0
SPLINE
  5
A3
330
1F
100
AcDbEntity
  8
0
  6
Continuous
 62
     7
370
    25
100
AcDbSpline
210
0.0
220
0.0
230
1.0
 70
    24
 71
     3
 72
     9
 73
     5
 74
     0
 42
0.00000001
 43
0.00000001
 40
0.0
 40
0.0
 40
0.0
 40
0.0
 40
0.5473166962243999
 40
1.0
 40
1.0
 40
1.0
 40
1.0
 10
-6.196518046709
 20
-28.3
 30
0.0
 10
-6.156903849948576
 20
-28.3
 30
0.0
 10
-6.084524920101016
 20
-28.29999999999999
 30
0.0
 10
-6.0010696691885
 20
-28.29999999999999
 30
0.0
 10
-5.963290870488001
 20
-28.3
 30
0.0
  0
SPLINE
  5
A5
330
1F
100
AcDbEntity
  8
0
  6
Continuous
 62
     7
370
    25
100
AcDbSpline
210
0.0
220
0.0
230
1.0
 70
    24
 71
     3
 72
     9
 73
     5
 74
     0
 42
0.00000001
 43
0.00000001
 40
0.0
 40
0.0
 40
0.0
 40
0.0
 40
0.5812351708929978
 40
1.0
 40
1.0
 40
1.0
 40
1.0
 10
-3.606840764331
 20
-28.3
 30
0.0
 10
-3.557426498251484
 20
-28.3
 30
0.0
 10
-3.472410538182176
 20
-28.29999999999999
 30
0.0
 10
-3.403591723111443
 20
-28.3
 30
0.0
 10
-3.374772823779
 20
-28.3
 30
0.0
  0
SPLINE
  5
A8
330
1F
100
AcDbEntity
  8
0
  6
Continuous
 62
     7
370
    25
100
AcDbSpline
210
0.0
220
0.0
230
1.0
 70
    24
 71
     3
 72
     9
 73
     5
 74
     0
 42
0.00000001
 43
0.00000001
 40
0.0
 40
0.0
 40
0.0
 40
0.0
 40
0.5812351708922904
 40
1.0
 40
1.0
 40
1.0
 40
1.0
 10
-5.020004246284
 20
-28.3
 30
0.0
 10
-4.970589980204561
 20
-28.3
 30
0.0
 10
-4.885574020135284
 20
-28.3
 30
0.0
 10
-4.816755205064508
 20
-28.3
 30
0.0
 10
-4.787936305732
 20
-28.3
 30
0.0
  0
SPLINE
  5
AA
330
1F
100
AcDbEntity
  8
0
  6
Continuous
 62
     7
370
    25
100
AcDbSpline
210
0.0
220
0.0
230
1.0
 70
    24
 71
     3
 72
     9
 73
     5
 74
     0
 42
0.00000001
 43
0.00000001
 40
0.0
 40
0.0
 40
0.0
 40
0.0
 40
0.5473166962231963
 40
1.0
 40
1.0
 40
1.0
 40
1.0
 10
-5.253231422504999
 20
-28.3
 30
0.0
 10
-5.213617225744682
 20
-28.3
 30
0.0
 10
-5.141238295897155
 20
-28.29999999999999
 30
0.0
 10
-5.057783044984612
 20
-28.3
 30
0.0
 10
-5.020004246284
 20
-28.3
 30
0.0
  0
SPLINE
  5
AC
330
1F
100
AcDbEntity
  8
0
  6
Continuous
 62
     7
370
    25
100
AcDbSpline
210
0.0
220
0.0
230
1.0
 70
    24
 71
     3
 72
     9
 73
     5
 74
     0
 42
0.00000001
 43
0.00000001
 40
0.0
 40
0.0
 40
0.0
 40
0.0
 40
0.5739651039269875
 40
1.0
 40
1.0
 40
1.0
 40
1.0
 10
2.009380042463
 20
-28.3
 30
0.0
 10
2.073839250709987
 20
-28.3
 30
0.0
 10
2.18614435045554
 20
-28.3
 30
0.0
 10
2.271338948015542
 20
-28.29999999999999
 30
0.0
 10
2.307634819533
 20
-28.3
 30
0.0
  0
SPLINE
  5
AF
330
1F
100
AcDbEntity
  8
0
  6
Continuous
 62
     7
370
    25
100
AcDbSpline
210
0.0
220
0.0
230
1.0
 70
    24
 71
     3
 72
     9
 73
     5
 74
     0
 42
0.00000001
 43
0.00000001
 40
0.0
 40
0.0
 40
0.0
 40
0.0
 40
0.5543990500573555
 40
1.0
 40
1.0
 40
1.0
 40
1.0
 10
1.797129511677
 20
-28.3
 30
0.0
 10
1.834620666762349
 20
-28.3
 30
0.0
 10
1.902245521244819
 20
-28.3
 30
0.0
 10
1.976356237084091
 20
-28.29999999999999
 30
0.0
 10
2.009380042463
 20
-28.3
 30
0.0
  0
SPLINE
  5
CF
330
1F
100
AcDbEntity
  8
0
  6
Continuous
 62
     7
370
    25
100
AcDbSpline
210
0.0
220
0.0
230
1.0
 70
    24
 71
     3
 72
     9
 73
     5
 74
     0
 42
0.00000001
 43
0.00000001
 40
0.0
 40
0.0
 40
0.0
 40
0.0
 40
0.5567898178632922
 40
1.0
 40
1.0
 40
1.0
 40
1.0
 10
1.649078556263
 20
-28.3
 30
0.0
 10
1.670613541131083
 20
-28.3
 30
0.0
 10
1.709290586179651
 20
-28.3
 30
0.0
 10
1.770154157255141
 20
-28.3
 30
0.0
 10
1.797129511677
 20
-28.3
 30
0.0
  0
SPLINE
  5
D1
330
1F
100
AcDbEntity
  8
0
  6
Continuous
 62
     7
370
    25
100
AcDbSpline
210
0.0
220
0.0
230
1.0
 70
    24
 71
     3
 72
     9
 73
     5
 74
     0
 42
0.00000001
 43
0.00000001
 40
0.0
 40
0.0
 40
0.0
 40
0.0
 40
0.5822445602503266
 40
1.0
 40
1.0
 40
1.0
 40
1.0
 10
-0.690203821656
 20
-28.3
 30
0.0
 10
-0.669856887155743
 20
-28.3
 30
0.0
 10
-0.6349112030062691
 20
-28.3
 30
0.0
 10
-0.5682001256486898
 20
-28.29999999999999
 30
0.0
 10
-0.540331210191
 20
-28.3
 30
0.0
  0
SPLINE
  5
D3
330
1F
100
AcDbEntity
  8
0
  6
Continuous
 62
     7
370
    25
100
AcDbSpline
210
0.0
220
0.0
230
1.0
 70
    24
 71
     3
 72
     9
 73
     5
 74
     0
 42
0.00000001
 43
0.00000001
 40
0.0
 40
0.0
 40
0.0
 40
0.0
 40
0.5822445602491715
 40
1.0
 40
1.0
 40
1.0
 40
1.0
 10
-5.403104033969999
 20
-28.3
 30
0.0
 10
-5.382757099469964
 20
-28.3
 30
0.0
 10
-5.347811415320799
 20
-28.3
 30
0.0
 10
-5.281100337962901
 20
-28.3
 30
0.0
 10
-5.253231422504999
 20
-28.3
 30
0.0
  0
SPLINE
  5
D5
330
1F
100
AcDbEntity
  8
0
  6
Continuous
 62
     7
370
    25
100
AcDbSpline
210
0.0
220
0.0
230
1.0
 70
    24
 71
     3
 72
     9
 73
     5
 74
     0
 42
0.00000001
 43
0.00000001
 40
0.0
 40
0.0
 40
0.0
 40
0.0
 40
0.5822445602503268
 40
1.0
 40
1.0
 40
1.0
 40
1.0
 10
-1.63349044586
 20
-28.3
 30
0.0
 10
-1.613143511359743
 20
-28.3
 30
0.0
 10
-1.578197827210269
 20
-28.29999999999999
 30
0.0
 10
-1.51148674985269
 20
-28.3
 30
0.0
 10
-1.483617834395
 20
-28.3
 30
0.0
  0
SPLINE
  5
D7
330
1F
100
AcDbEntity
  8
0
  6
Continuous
 62
     7
370
    25
100
AcDbSpline
210
0.0
220
0.0
230
1.0
 70
    24
 71
     3
 72
     9
 73
     5
 74
     0
 42
0.00000001
 43
0.00000001
 40
0.0
 40
0.0
 40
0.0
 40
0.0
 40
0.5822445602491707
 40
1.0
 40
1.0
 40
1.0
 40
1.0
 10
-3.046653927813
 20
-28.3
 30
0.0
 10
-3.026306993312964
 20
-28.3
 30
0.0
 10
-2.991361309163801
 20
-28.3
 30
0.0
 10
-2.924650231805901
 20
-28.3
 30
0.0
 10
-2.896781316348
 20
-28.3
 30
0.0
  0
SPLINE
  5
D9
330
1F
100
AcDbEntity
  8
0
  6
Continuous
 62
     7
370
    25
100
AcDbSpline
210
0.0
220
0.0
230
1.0
 70
    24
 71
     3
 72
     9
 73
     5
 74
     0
 42
0.00000001
 43
0.00000001
 40
0.0
 40
0.0
 40
0.0
 40
0.0
 40
0.58224456024917
 40
1.0
 40
1.0
 40
1.0
 40
1.0
 10
-6.346390658174
 20
-28.3
 30
0.0
 10
-6.326043723673966
 20
-28.3
 30
0.0
 10
-6.291098039524802
 20
-28.3
 30
0.0
 10
-6.2243869621669
 20
-28.29999999999999
 30
0.0
 10
-6.196518046709
 20
-28.3
 30
0.0
  0
SPLINE
  5
DB
330
1F
100
AcDbEntity
  8
0
  6
Continuous
 62
     7
370
    25
100
AcDbSpline
210
0.0
220
0.0
230
1.0
 70
    24
 71
     3
 72
     9
 73
     5
 74
     0
 42
0.00000001
 43
0.00000001
 40
0.0
 40
0.0
 40
0.0
 40
0.0
 40
0.5822445602503257
 40
1.0
 40
1.0
 40
1.0
 40
1.0
 10
-3.989940552017001
 20
-28.3
 30
0.0
 10
-3.969593617516744
 20
-28.3
 30
0.0
 10
-3.934647933367271
 20
-28.3
 30
0.0
 10
-3.867936856009691
 20
-28.3
 30
0.0
 10
-3.840067940552
 20
-28.3
 30
0.0
  0
SPLINE
  5
DD
330
1F
100
AcDbEntity
  8
0
  6
Continuous
 62
     7
370
    25
100
AcDbSpline
210
0.0
220
0.0
230
1.0
 70
    24
 71
     3
 72
     9
 73
     5
 74
     0
 42
0.00000001
 43
0.00000001
 40
0.0
 40
0.0
 40
0.0
 40
0.0
 40
0.5329875094398533
 40
1.0
 40
1.0
 40
1.0
 40
1.0
 10
-1.018322717622
 20
-28.3
 30
0.0
 10
-0.9883163727772166
 20
-28.29999999999999
 30
0.0
 10
-0.9320179711949377
 20
-28.29999999999999
 30
0.0
 10
-0.9171337209915872
 20
-28.3
 30
0.0
 10
-0.910182590234
 20
-28.3
 30
0.0
  0
SPLINE
  5
DF
330
1F
100
AcDbEntity
  8
0
  6
Continuous
 62
     7
370
    25
100
AcDbSpline
210
0.0
220
0.0
230
1.0
 70
    24
 71
     3
 72
     9
 73
     5
 74
     0
 42
0.00000001
 43
0.00000001
 40
0.0
 40
0.0
 40
0.0
 40
0.0
 40
0.532987509440245
 40
1.0
 40
1.0
 40
1.0
 40
1.0
 10
-0.07503609341826
 20
-28.3
 30
0.0
 10
-0.0450297485733144
 20
-28.3
 30
0.0
 10
0.0112686530092272
 20
-28.29999999999999
 30
0.0
 10
0.0261529032126534
 20
-28.3
 30
0.0
 10
0.03310403397027
 20
-28.3
 30
0.0
  0
SPLINE
  5
E1
330
1F
100
AcDbEntity
  8
0
  6
Continuous
 62
     7
370
    25
100
AcDbSpline
210
0.0
220
0.0
230
1.0
 70
    24
 71
     3
 72
     9
 73
     5
 74
     0
 42
0.00000001
 43
0.00000001
 40
0.0
 40
0.0
 40
0.0
 40
0.0
 40
0.5329875094398528
 40
1.0
 40
1.0
 40
1.0
 40
1.0
 10
-5.731222929936
 20
-28.3
 30
0.0
 10
-5.701216585091216
 20
-28.3
 30
0.0
 10
-5.644918183508938
 20
-28.3
 30
0.0
 10
-5.630033933305587
 20
-28.3
 30
0.0
 10
-5.623082802548
 20
-28.3
 30
0.0
  0
SPLINE
  5
E3
330
1F
100
AcDbEntity
  8
0
  6
Continuous
 62
     7
370
    25
100
AcDbSpline
210
0.0
220
0.0
230
1.0
 70
    24
 71
     3
 72
     9
 73
     5
 74
     0
 42
0.00000001
 43
0.00000001
 40
0.0
 40
0.0
 40
0.0
 40
0.0
 40
0.5329875094398534
 40
1.0
 40
1.0
 40
1.0
 40
1.0
 10
-2.431486199575001
 20
-28.3
 30
0.0
 10
-2.401479854730217
 20
-28.3
 30
0.0
 10
-2.345181453147938
 20
-28.3
 30
0.0
 10
-2.330297202944588
 20
-28.3
 30
0.0
 10
-2.323346072187
 20
-28.3
 30
0.0
  0
SPLINE
  5
E5
330
1F
100
AcDbEntity
  8
0
  6
Continuous
 62
     7
370
    25
100
AcDbSpline
210
0.0
220
0.0
230
1.0
 70
    24
 71
     3
 72
     9
 73
     5
 74
     0
 42
0.00000001
 43
0.00000001
 40
0.0
 40
0.0
 40
0.0
 40
0.0
 40
0.5329875094398534
 40
1.0
 40
1.0
 40
1.0
 40
1.0
 10
-3.374772823779001
 20
-28.3
 30
0.0
 10
-3.344766478934217
 20
-28.3
 30
0.0
 10
-3.288468077351938
 20
-28.3
 30
0.0
 10
-3.273583827148587
 20
-28.3
 30
0.0
 10
-3.266632696391
 20
-28.3
 30
0.0
  0
SPLINE
  5
E7
330
1F
100
AcDbEntity
  8
0
  6
Continuous
 62
     7
370
    25
100
AcDbSpline
210
0.0
220
0.0
230
1.0
 70
    24
 71
     3
 72
     9
 73
     5
 74
     0
 42
0.00000001
 43
0.00000001
 40
0.0
 40
0.0
 40
0.0
 40
0.0
 40
0.5329875094398542
 40
1.0
 40
1.0
 40
1.0
 40
1.0
 10
-4.787936305732
 20
-28.3
 30
0.0
 10
-4.757929960887216
 20
-28.3
 30
0.0
 10
-4.701631559304936
 20
-28.3
 30
0.0
 10
-4.686747309101587
 20
-28.29999999999999
 30
0.0
 10
-4.679796178344001
 20
-28.3
 30
0.0
  0
SPLINE
  5
E9
330
1F
100
AcDbEntity
  8
0
  6
Continuous
 62
     7
370
    25
100
AcDbSpline
210
0.0
220
0.0
230
1.0
 70
    24
 71
     3
 72
     9
 73
     5
 74
     0
 42
0.00000001
 43
0.00000001
 40
0.0
 40
0.0
 40
0.0
 40
0.0
 40
0.5434364068927893
 40
1.0
 40
1.0
 40
1.0
 40
1.0
 10
6.663711252654
 20
-28.3
 30
0.0
 10
6.706991528923973
 20
-28.3
 30
0.0
 10
6.786633370583857
 20
-28.3
 30
0.0
 10
6.830831403152975
 20
-28.3
 30
0.0
 10
6.851010615711002
 20
-28.3
 30
0.0
  0
SPLINE
  5
EB
330
1F
100
AcDbEntity
  8
0
  6
Continuous
 62
     7
370
    25
100
AcDbSpline
210
0.0
220
0.0
230
1.0
 70
    24
 71
     3
 72
     9
 73
     5
 74
     0
 42
0.00000001
 43
0.00000001
 40
0.0
 40
0.0
 40
0.0
 40
0.0
 40
0.5848556563923348
 40
1.0
 40
1.0
 40
1.0
 40
1.0
 10
5.841205944797999
 20
-28.3
 30
0.0
 10
5.862793946652187
 20
-28.3
 30
0.0
 10
5.899705621555619
 20
-28.29999999999999
 30
0.0
 10
5.986937091689386
 20
-28.3
 30
0.0
 10
6.023150743100001
 20
-28.3
 30
0.0
  0
SPLINE
  5
ED
330
1F
100
AcDbEntity
  8
0
  6
Continuous
 62
     7
370
    25
100
AcDbSpline
210
0.0
220
0.0
230
1.0
 70
    24
 71
     3
 72
    10
 73
     6
 74
     0
 42
0.00000001
 43
0.00000001
 40
0.0
 40
0.0
 40
0.0
 40
0.0
 40
0.2516927383660184
 40
0.5184105511883434
 40
1.0
 40
1.0
 40
1.0
 40
1.0
 10
2.307634819533
 20
-28.3
 30
0.0
 10
2.327225663554249
 20
-28.3
 30
0.0
 10
2.367576848547643
 20
-28.3
 30
0.0
 10
2.412621204840389
 20
-28.3
 30
0.0
 10
2.417932268006862
 20
-28.3
 30
0.0
 10
2.421350318471
 20
-28.3
 30
0.0
  0
SPLINE
  5
EF
330
1F
100
AcDbEntity
  8
0
  6
Continuous
 62
     7
370
    25
100
AcDbSpline
210
0.0
220
0.0
230
1.0
 70
    24
 71
     3
 72
     9
 73
     5
 74
     0
 42
0.00000001
 43
0.00000001
 40
0.0
 40
0.0
 40
0.0
 40
0.0
 40
0.6141318907489611
 40
1.0
 40
1.0
 40
1.0
 40
1.0
 10
1.598182590234
 20
-28.3
 30
0.0
 10
1.599445537513296
 20
-28.3
 30
0.0
 10
1.601502013163429
 20
-28.29999999999999
 30
0.0
 10
1.635831790132813
 20
-28.29999999999999
 30
0.0
 10
1.649078556263
 20
-28.3
 30
0.0
  0
SPLINE
  5
FF
330
1F
100
AcDbEntity
  8
0
  6
Continuous
 62
     7
370
    25
100
AcDbSpline
210
0.0
220
0.0
230
1.0
 70
    24
 71
     3
 72
     9
 73
     5
 74
     0
 42
0.00000001
 43
0.00000001
 40
0.0
 40
0.0
 40
0.0
 40
0.0
 40
0.6030070725610437
 40
1.0
 40
1.0
 40
1.0
 40
1.0
 10
4.973876857749
 20
-28.3
 30
0.0
 10
4.980727393497729
 20
-28.29999999999999
 30
0.0
 10
4.99208801605168
 20
-28.29999999999999
 30
0.0
 10
5.006949394688994
 20
-28.3
 30
0.0
 10
5.012849256899999
 20
-28.3
 30
0.0
  0
SPLINE
  5
11C
330
1F
100
AcDbEntity
  8
0
  6
Continuous
 62
     7
370
    25
100
AcDbSpline
210
0.0
220
0.0
230
1.0
 70
    24
 71
     3
 72
     9
 73
     5
 74
     0
 42
0.00000001
 43
0.00000001
 40
0.0
 40
0.0
 40
0.0
 40
0.0
 40
0.54298947041587
 40
1.0
 40
1.0
 40
1.0
 40
1.0
 10
1.20021656051
 20
-28.3
 30
0.0
 10
1.215301974462581
 20
-28.29999999999999
 30
0.0
 10
1.243084122689188
 20
-28.3
 30
0.0
 10
1.252875538394251
 20
-28.29999999999999
 30
0.0
 10
1.257350318471
 20
-28.3
 30
0.0
  0
SPLINE
  5
120
330
1F
100
AcDbEntity
  8
0
  6
Continuous
 62
     7
370
    25
100
AcDbSpline
210
0.0
220
0.0
230
1.0
 70
    24
 71
     3
 72
     9
 73
     5
 74
     0
 42
0.00000001
 43
0.00000001
 40
0.0
 40
0.0
 40
0.0
 40
0.0
 40
0.5745247920342742
 40
1.0
 40
1.0
 40
1.0
 40
1.0
 10
-2.756033970276001
 20
-28.3
 30
0.0
 10
-2.712364929330493
 20
-28.3
 30
0.0
 10
-2.636355953650115
 20
-28.3
 30
0.0
 10
-2.54937984917542
 20
-28.3
 30
0.0
 10
-2.512373673036
 20
-28.3
 30
0.0
  0
SPLINE
  5
122
330
1F
100
AcDbEntity
  8
0
  6
Continuous
 62
     7
370
    25
100
AcDbSpline
210
0.0
220
0.0
230
1.0
 70
    24
 71
     3
 72
     9
 73
     5
 74
     0
 42
0.00000001
 43
0.00000001
 40
0.0
 40
0.0
 40
0.0
 40
0.0
 40
0.5598721381113061
 40
1.0
 40
1.0
 40
1.0
 40
1.0
 10
-1.930547770701
 20
-28.3
 30
0.0
 10
-1.879849797265296
 20
-28.29999999999999
 30
0.0
 10
-1.789297026400986
 20
-28.3
 30
0.0
 10
-1.734514648071385
 20
-28.3
 30
0.0
 10
-1.710403397028
 20
-28.3
 30
0.0
  0
SPLINE
  5
124
330
1F
100
AcDbEntity
  8
0
  6
Continuous
 62
     7
370
    25
100
AcDbSpline
210
0.0
220
0.0
230
1.0
 70
    24
 71
     3
 72
     9
 73
     5
 74
     0
 42
0.00000001
 43
0.00000001
 40
0.0
 40
0.0
 40
0.0
 40
0.0
 40
0.5447328564152084
 40
1.0
 40
1.0
 40
1.0
 40
1.0
 10
2.412997876858
 20
-28.3
 30
0.0
 10
2.447516749711795
 20
-28.3
 30
0.0
 10
2.510885192513204
 20
-28.3
 30
0.0
 10
2.525896297874233
 20
-28.29999999999999
 30
0.0
 10
2.532730360934
 20
-28.3
 30
0.0
  0
SPLINE
  5
12B
330
1F
100
AcDbEntity
  8
0
  6
Continuous
 62
     7
370
    25
100
AcDbSpline
210
0.0
220
0.0
230
1.0
 70
    24
 71
     3
 72
     9
 73
     5
 74
     0
 42
0.00000001
 43
0.00000001
 40
0.0
 40
0.0
 40
0.0
 40
0.0
 40
0.0838438613564244
 40
1.0
 40
1.0
 40
1.0
 40
1.0
 10
0.912798301486
 20
-28.3
 30
0.0
 10
0.9164614260057158
 20
-28.3
 30
0.0
 10
0.9601512616174551
 20
-28.30000000000001
 30
0.0
 10
0.9936232133206953
 20
-28.3
 30
0.0
 10
1.024288747346
 20
-28.3
 30
0.0
  0
SPLINE
  5
132
330
1F
100
AcDbEntity
  8
0
  6
Continuous
 62
     7
370
    25
100
AcDbSpline
210
0.0
220
0.0
230
1.0
 70
    24
 71
     3
 72
     9
 73
     5
 74
     0
 42
0.00000001
 43
0.00000001
 40
0.0
 40
0.0
 40
0.0
 40
0.0
 40
0.5363670786114908
 40
1.0
 40
1.0
 40
1.0
 40
1.0
 10
7.444670912951
 20
-28.3
 30
0.0
 10
7.488405699601489
 20
-28.3
 30
0.0
 10
7.569944609043329
 20
-28.29999999999999
 30
0.0
 10
7.646681345878354
 20
-28.29999999999999
 30
0.0
 10
7.682259023355001
 20
-28.3
 30
0.0
  0
SPLINE
  5
13C
330
1F
100
AcDbEntity
  8
0
  6
Continuous
 62
     7
370
    25
100
AcDbSpline
210
0.0
220
0.0
230
1.0
 70
    24
 71
     3
 72
     9
 73
     5
 74
     0
 42
0.00000001
 43
0.00000001
 40
0.0
 40
0.0
 40
0.0
 40
0.0
 40
0.564950526324976
 40
1.0
 40
1.0
 40
1.0
 40
1.0
 10
7.682259023355001
 20
-28.3
 30
0.0
 10
7.720968818631593
 20
-28.3
 30
0.0
 10
7.789487730417378
 20
-28.3
 30
0.0
 10
7.835821351229311
 20
-28.3
 30
0.0
 10
7.855978768577001
 20
-28.3
 30
0.0
  0
SPLINE
  5
13D
330
1F
100
AcDbEntity
  8
0
  6
Continuous
 62
     7
370
    25
100
AcDbSpline
210
0.0
220
0.0
230
1.0
 70
    24
 71
     3
 72
     9
 73
     5
 74
     0
 42
0.00000001
 43
0.00000001
 40
0.0
 40
0.0
 40
0.0
 40
0.0
 40
0.9021017185162352
 40
0.9999999999999999
 40
0.9999999999999999
 40
0.9999999999999999
 40
0.9999999999999999
 10
-5.127129511676999
 20
-28.3
 30
0.0
 10
-5.077898216664629
 20
-28.3
 30
0.0
 10
-5.023324221291529
 20
-28.3
 30
0.0
 10
-4.989486869758077
 20
-28.29999999999999
 30
0.0
 10
-4.98617425119299
 20
-28.3
 30
0.0
  0
SPLINE
  5
13F
330
1F
100
AcDbEntity
  8
0
  6
Continuous
 62
     7
370
    25
100
AcDbSpline
210
0.0
220
0.0
230
1.0
 70
    24
 71
     3
 72
     9
 73
     5
 74
     0
 42
0.00000001
 43
0.00000001
 40
0.0
 40
0.0
 40
0.0
 40
0.0
 40
0.5517316212446345
 40
1.0
 40
1.0
 40
1.0
 40
1.0
 10
7.855978768577001
 20
-28.3
 30
0.0
 10
7.876384028112502
 20
-28.29999999999999
 30
0.0
 10
7.913368059387476
 20
-28.3
 30
0.0
 10
7.91951881793209
 20
-28.3
 30
0.0
 10
7.922276008493
 20
-28.3
 30
0.0
  0
SPLINE
  5
141
330
1F
100
AcDbEntity
  8
0
  6
Continuous
 62
     7
370
    25
100
AcDbSpline
210
0.0
220
0.0
230
1.0
 70
    24
 71
     3
 72
     9
 73
     5
 74
     0
 42
0.00000001
 43
0.00000001
 40
0.0
 40
0.0
 40
0.0
 40
0.0
 40
0.628189287361794
 40
1.0
 40
1.0
 40
1.0
 40
1.0
 10
-6.935537154988999
 20
-28.3
 30
0.0
 10
-6.91237779416918
 20
-28.3
 30
0.0
 10
-6.875510943228305
 20
-28.29999999999999
 30
0.0
 10
-6.834804049117593
 20
-28.3
 30
0.0
 10
-6.819668789809
 20
-28.3
 30
0.0
  0
SPLINE
  5
143
330
1F
100
AcDbEntity
  8
0
  6
Continuous
 62
     7
370
    25
100
AcDbSpline
210
0.0
220
0.0
230
1.0
 70
    24
 71
     3
 72
     9
 73
     5
 74
     0
 42
0.00000001
 43
0.00000001
 40
0.0
 40
0.0
 40
0.0
 40
0.0
 40
0.5471138500156948
 40
1.0
 40
1.0
 40
1.0
 40
1.0
 10
0.5807813163479999
 20
-28.3
 30
0.0
 10
0.6046325063517148
 20
-28.29999999999999
 30
0.0
 10
0.6482270708158213
 20
-28.3
 30
0.0
 10
0.6529457693403085
 20
-28.3
 30
0.0
 10
0.655082802548
 20
-28.3
 30
0.0
  0
SPLINE
  5
145
330
1F
100
AcDbEntity
  8
0
  6
Continuous
 62
     7
370
    25
100
AcDbSpline
210
0.0
220
0.0
230
1.0
 70
    24
 71
     3
 72
     9
 73
     5
 74
     0
 42
0.00000001
 43
0.00000001
 40
0.0
 40
0.0
 40
0.0
 40
0.0
 40
0.6269091462162312
 40
1.0
 40
1.0
 40
1.0
 40
1.0
 10
-6.819668789809
 20
-28.3
 30
0.0
 10
-6.804551340365863
 20
-28.3
 30
0.0
 10
-6.780437081490586
 20
-28.29999999999999
 30
0.0
 10
-6.749669999639322
 20
-28.3
 30
0.0
 10
-6.738191082803
 20
-28.3
 30
0.0
  0
SPLINE
  5
14A
330
1F
100
AcDbEntity
  8
0
  6
Continuous
 62
     7
370
    25
100
AcDbSpline
210
0.0
220
0.0
230
1.0
 70
    24
 71
     3
 72
     9
 73
     5
 74
     0
 42
0.00000001
 43
0.00000001
 40
0.0
 40
0.0
 40
0.0
 40
0.0
 40
0.5732626882856124
 40
1.0
 40
1.0
 40
1.0
 40
1.0
 10
-6.738191082803
 20
-28.3
 30
0.0
 10
-6.724911656377563
 20
-28.3
 30
0.0
 10
-6.701747011797
 20
-28.3
 30
0.0
 10
-6.675986571579847
 20
-28.3
 30
0.0
 10
-6.664993630573
 20
-28.3
 30
0.0
  0
SPLINE
  5
14B
330
1F
100
AcDbEntity
  8
0
  6
Continuous
 62
     7
370
    25
100
AcDbSpline
210
0.0
220
0.0
230
1.0
 70
    24
 71
     3
 72
     9
 73
     5
 74
     0
 42
0.00000001
 43
0.00000001
 40
0.0
 40
0.0
 40
0.0
 40
0.0
 40
0.7570619097998408
 40
1.0
 40
1.0
 40
1.0
 40
1.0
 10
-6.664993630573
 20
-28.3
 30
0.0
 10
-6.651208705783825
 20
-28.29999999999999
 30
0.0
 10
-6.633000254650917
 20
-28.29999999999999
 30
0.0
 10
-6.614628998421816
 20
-28.30000000000001
 30
0.0
 10
-6.610165920518939
 20
-28.3
 30
0.0
  0
SPLINE
  5
14C
330
1F
100
AcDbEntity
  8
0
  6
Continuous
 62
     7
370
    25
100
AcDbSpline
210
0.0
220
0.0
230
1.0
 70
    24
 71
     3
 72
     9
 73
     5
 74
     0
 42
0.00000001
 43
0.00000001
 40
0.0
 40
0.0
 40
0.0
 40
0.0
 40
0.5664863072151098
 40
1.0
 40
1.0
 40
1.0
 40
1.0
 10
2.516925690021
 20
-28.3
 30
0.0
 10
2.521804451831398
 20
-28.29999999999999
 30
0.0
 10
2.530416772638203
 20
-28.3
 30
0.0
 10
2.589819311348083
 20
-28.3
 30
0.0
 10
2.615571125265
 20
-28.3
 30
0.0
  0
SPLINE
  5
14E
330
1F
100
AcDbEntity
  8
0
  6
Continuous
 62
     7
370
    25
100
AcDbSpline
210
0.0
220
0.0
230
1.0
 70
     8
 71
     3
 72
    21
 73
    17
 74
     0
 42
0.00000001
 43
0.00000001
 40
0.0
 40
0.0
 40
0.0
 40
0.0
 40
0.072603204946998
 40
0.1452131309407154
 40
0.2178267446404173
 40
0.2904417913529791
 40
0.363048199229258
 40
0.4356674647281009
 40
0.5082831097610695
 40
0.5809032978164687
 40
0.6535087225048588
 40
0.7261200887028162
 40
0.7987634397024058
 40
0.8713910754213056
 40
0.9440316799299828
 40
1.0
 40
1.0
 40
1.0
 40
1.0
 10
-17.280628652806
 20
26.351372664534
 30
0.0
 10
-17.20285859088036
 20
26.39784425650331
 30
0.0
 10
-17.04731126767446
 20
26.49079174242477
 30
0.0
 10
-16.77236205793681
 20
26.52339209305334
 30
0.0
 10
-16.50427519465308
 20
26.47003860841303
 30
0.0
 10
-16.26789981262628
 20
26.33007118807955
 30
0.0
 10
-16.09068534828911
 20
26.12073828191075
 30
0.0
 10
-15.99190230162411
 20
25.86473596934676
 30
0.0
 10
-15.98258802929706
 20
25.59050700362018
 30
0.0
 10
-16.06373686326754
 20
25.32841704354326
 30
0.0
 10
-16.22641185246485
 20
25.10742504920796
 30
0.0
 10
-16.45244520357328
 20
24.95213810161106
 30
0.0
 10
-16.71753367553081
 20
24.8791093585067
 30
0.0
 10
-16.98975912788183
 20
24.89896388903662
 30
0.0
 10
-17.22873894632375
 20
24.99240616004133
 30
0.0
 10
-17.34075390750609
 20
25.10702005494742
 30
0.0
 10
-17.38950082939056
 20
25.15689798663519
 30
0.0
  0
SPLINE
  5
14F
330
1F
100
AcDbEntity
  8
0
  6
Continuous
 62
     7
370
    25
100
AcDbSpline
210
0.0
220
0.0
230
1.0
 70
     8
 71
     3
 72
    14
 73
    10
 74
     0
 42
0.00000001
 43
0.00000001
 40
0.0
 40
0.0
 40
0.0
 40
0.0
 40
0.25
 40
0.25
 40
0.5
 40
0.5
 40
0.75
 40
0.75
 40
1.0
 40
1.0
 40
1.0
 40
1.0
 10
-15.86734342334
 20
26.086319251902
 30
0.0
 10
-15.93763121745615
 20
26.21452475309896
 30
0.0
 10
-16.03553843985946
 20
26.32555223875906
 30
0.0
 10
-16.26661411990897
 20
26.49290922447957
 30
0.0
 10
-16.39962817327559
 20
26.54909903323633
 30
0.0
 10
-16.67297747037395
 20
26.59687112757172
 30
0.0
 10
-16.81309879501061
 20
26.58839625515956
 30
0.0
 10
-17.07053855436079
 20
26.51080950388467
 30
0.0
 10
-17.187622005569
 20
26.44175261373118
 30
0.0
 10
-17.28062865035835
 20
26.35137266201522
 30
0.0
  0
SPLINE
  5
150
330
1F
100
AcDbEntity
  8
0
  6
Continuous
 62
     7
370
    25
100
AcDbSpline
210
0.0
220
0.0
230
1.0
 70
     8
 71
     3
 72
    21
 73
    17
 74
     0
 42
0.00000001
 43
0.00000001
 40
0.0
 40
0.0
 40
0.0
 40
0.0
 40
0.0726032049471967
 40
0.1452131309412073
 40
0.2178267446412869
 40
0.2904417913538663
 40
0.3630481992301263
 40
0.4356674647296037
 40
0.5082831097626124
 40
0.5809032978190752
 40
0.6535087225068057
 40
0.7261200887054071
 40
0.7987634397052644
 40
0.8713910754244207
 40
0.9440316799332747
 40
1.0
 40
1.0
 40
1.0
 40
1.0
 10
26.35137266453
 20
17.280628652806
 30
0.0
 10
26.39784425649892
 20
17.20285859088034
 30
0.0
 10
26.49079174241965
 20
17.0473112676743
 30
0.0
 10
26.52339209305137
 20
16.77236205793655
 30
0.0
 10
26.47003860840616
 20
16.50427519465385
 30
0.0
 10
26.3300711880761
 20
16.26789981262629
 30
0.0
 10
26.12073828190754
 20
16.0906853482884
 30
0.0
 10
25.86473596934317
 20
15.9919023016243
 30
0.0
 10
25.59050700361592
 20
15.98258802929768
 30
0.0
 10
25.32841704353779
 20
16.06373686326542
 30
0.0
 10
25.10742504920577
 20
16.22641185246727
 30
0.0
 10
24.9521381016057
 20
16.45244520357222
 30
0.0
 10
24.87910935850157
 20
16.71753367553099
 30
0.0
 10
24.89896388903216
 20
16.98975912788148
 30
0.0
 10
24.99240616003351
 20
17.22873894632015
 30
0.0
 10
25.10702005493638
 20
17.34075390749941
 30
0.0
 10
25.15689798662104
 20
17.38950082938086
 30
0.0
  0
SPLINE
  5
151
330
1F
100
AcDbEntity
  8
0
  6
Continuous
 62
     7
370
    25
100
AcDbSpline
210
0.0
220
0.0
230
1.0
 70
     8
 71
     3
 72
    14
 73
    10
 74
     0
 42
0.00000001
 43
0.00000001
 40
0.0
 40
0.0
 40
0.0
 40
0.0
 40
0.25
 40
0.25
 40
0.5
 40
0.5
 40
0.75
 40
0.75
 40
1.0
 40
1.0
 40
1.0
 40
1.0
 10
26.0863192519
 20
15.86734342334
 30
0.0
 10
26.21452413622128
 20
15.93763087926314
 30
0.0
 10
26.32555459977139
 20
16.03554133115751
 30
0.0
 10
26.49290901042284
 20
16.26661411800076
 30
0.0
 10
26.54909977728828
 20
16.39963032273696
 30
0.0
 10
26.59687138026661
 20
16.67298106287013
 30
0.0
 10
26.5883959197043
 20
16.81310082101371
 30
0.0
 10
26.51080883156438
 20
17.07053984864326
 30
0.0
 10
26.44175215728649
 20
17.18762245489592
 30
0.0
 10
26.35137266467274
 20
17.28062865294472
 30
0.0
  0
SPLINE
  5
152
330
1F
100
AcDbEntity
  8
0
  6
Continuous
 62
     7
370
    25
100
AcDbSpline
210
0.0
220
0.0
230
1.0
 70
     8
 71
     3
 72
    21
 73
    17
 74
     0
 42
0.00000001
 43
0.00000001
 40
0.0
 40
0.0
 40
0.0
 40
0.0
 40
0.0726032049468959
 40
0.1452131309403128
 40
0.2178267446395328
 40
0.2904417913526194
 40
0.3630481992276667
 40
0.4356674647269839
 40
0.5082831097596874
 40
0.5809032978158074
 40
0.6535087225038492
 40
0.7261200887022465
 40
0.7987634397015404
 40
0.8713910754197681
 40
0.9440316799281344
 40
1.0
 40
1.0
 40
1.0
 40
1.0
 10
17.2806286528
 20
-26.35137266453
 30
0.0
 10
17.20285859087433
 20
-26.39784425649888
 30
0.0
 10
17.04731126766857
 20
-26.49079174241935
 30
0.0
 10
16.77236205793155
 20
-26.52339209305177
 30
0.0
 10
16.50427519464992
 20
-26.47003860840456
 30
0.0
 10
16.26789981261966
 20
-26.33007118807905
 30
0.0
 10
16.09068534828772
 20
-26.12073828190516
 30
0.0
 10
15.99190230162097
 20
-25.86473596934374
 30
0.0
 10
15.98258802929154
 20
-25.59050700361606
 30
0.0
 10
16.06373686325897
 20
-25.32841704353639
 30
0.0
 10
16.22641185246568
 20
-25.10742504920675
 30
0.0
 10
16.45244520357029
 20
-24.95213810160589
 30
0.0
 10
16.71753367552824
 20
-24.87910935850164
 30
0.0
 10
16.98975912787762
 20
-24.89896388903213
 30
0.0
 10
17.22873894632105
 20
-24.99240616003682
 30
0.0
 10
17.34075390750433
 20
-25.10702005494499
 30
0.0
 10
17.38950082939025
 20
-25.15689798663474
 30
0.0
  0
SPLINE
  5
153
330
1F
100
AcDbEntity
  8
0
  6
Continuous
 62
     7
370
    25
100
AcDbSpline
210
0.0
220
0.0
230
1.0
 70
     8
 71
     3
 72
    14
 73
    10
 74
     0
 42
0.00000001
 43
0.00000001
 40
0.0
 40
0.0
 40
0.0
 40
0.0
 40
0.25
 40
0.25
 40
0.5
 40
0.5
 40
0.75
 40
0.75
 40
1.0
 40
1.0
 40
1.0
 40
1.0
 10
15.86734342334
 20
-26.0863192519
 30
0.0
 10
15.93763121745185
 20
-26.21452475309043
 30
0.0
 10
16.03553843985056
 20
-26.32555223875531
 30
0.0
 10
16.26661411990093
 20
-26.49290922447728
 30
0.0
 10
16.39962817326853
 20
-26.54909903322639
 30
0.0
 10
16.67297747036735
 20
-26.59687112757276
 30
0.0
 10
16.81309879500239
 20
-26.58839625515733
 30
0.0
 10
17.07053855435593
 20
-26.51080950388571
 30
0.0
 10
17.18762200556425
 20
-26.44175261372858
 30
0.0
 10
17.28062865035319
 20
-26.35137266201208
 30
0.0
  0
SPLINE
  5
154
330
1F
100
AcDbEntity
  8
0
  6
Continuous
 62
     7
370
    25
100
AcDbSpline
210
0.0
220
0.0
230
1.0
 70
     8
 71
     3
 72
    21
 73
    17
 74
     0
 42
0.00000001
 43
0.00000001
 40
0.0
 40
0.0
 40
0.0
 40
0.0
 40
0.0726032049466972
 40
0.145213130939821
 40
0.2178267446386634
 40
0.2904417913517323
 40
0.3630481992267986
 40
0.4356674647254813
 40
0.5082831097581447
 40
0.580903297813201
 40
0.6535087225019026
 40
0.7261200886996559
 40
0.7987634396986821
 40
0.8713910754166535
 40
0.9440316799248432
 40
1.0
 40
1.0
 40
1.0
 40
1.0
 10
-26.351372664534
 20
-17.2806286528
 30
0.0
 10
-26.39784425650327
 20
-17.20285859087434
 30
0.0
 10
-26.49079174242446
 20
-17.04731126766872
 30
0.0
 10
-26.52339209305373
 20
-16.77236205793182
 30
0.0
 10
-26.47003860841143
 20
-16.50427519464914
 30
0.0
 10
-26.33007118808248
 20
-16.26789981261965
 30
0.0
 10
-26.12073828190837
 20
-16.09068534828842
 30
0.0
 10
-25.86473596934734
 20
-15.99190230162078
 30
0.0
 10
-25.59050700362032
 20
-15.98258802929092
 30
0.0
 10
-25.32841704354184
 20
-16.06373686326107
 30
0.0
 10
-25.10742504920894
 20
-16.22641185246328
 30
0.0
 10
-24.95213810161125
 20
-16.45244520357135
 30
0.0
 10
-24.87910935850677
 20
-16.71753367552806
 30
0.0
 10
-24.8989638890366
 20
-16.98975912787797
 30
0.0
 10
-24.99240616004464
 20
-17.22873894632466
 30
0.0
 10
-25.10702005495603
 20
-17.34075390751102
 30
0.0
 10
-25.15689798664889
 20
-17.38950082939995
 30
0.0
  0
SPLINE
  5
155
330
1F
100
AcDbEntity
  8
0
  6
Continuous
 62
     7
370
    25
100
AcDbSpline
210
0.0
220
0.0
230
1.0
 70
     8
 71
     3
 72
    14
 73
    10
 74
     0
 42
0.00000001
 43
0.00000001
 40
0.0
 40
0.0
 40
0.0
 40
0.0
 40
0.25
 40
0.25
 40
0.5
 40
0.5
 40
0.75
 40
0.75
 40
1.0
 40
1.0
 40
1.0
 40
1.0
 10
-26.086319251902
 20
-15.86734342334
 30
0.0
 10
-26.21452475309868
 20
-15.93763121745195
 30
0.0
 10
-26.32555223875857
 20
-16.03553843985082
 30
0.0
 10
-26.49290922447896
 20
-16.26661411990159
 30
0.0
 10
-26.54909903323577
 20
-16.39962817326942
 30
0.0
 10
-26.59687112757169
 20
-16.67297747036866
 30
0.0
 10
-26.58839625515984
 20
-16.81309879500388
 30
0.0
 10
-26.51080950388591
 20
-17.07053855435755
 30
0.0
 10
-26.44175261373301
 20
-17.18762200556586
 30
0.0
 10
-26.35137266201762
 20
-17.28062865035468
 30
0.0
  0
SPLINE
  5
16E
330
1F
100
AcDbEntity
  8
0
  6
Continuous
 62
     7
370
    25
100
AcDbSpline
210
0.0
220
0.0
230
1.0
 70
     8
 71
     3
 72
     8
 73
     4
 74
     0
 42
0.00000001
 43
0.00000001
 40
0.0
 40
0.0
 40
0.0
 40
0.0
 40
1.0
 40
1.0
 40
1.0
 40
1.0
 10
-25.313681369032
 20
-15.86734313242
 30
0.0
 10
-25.5578485683754
 20
-15.76620706687088
 30
0.0
 10
-25.84215218940607
 20
-15.76620698890911
 30
0.0
 10
-26.086319242056
 20
-15.86734341516
 30
0.0
  0
SPLINE
  5
16F
330
1F
100
AcDbEntity
  8
0
  6
Continuous
 62
     7
370
    25
100
AcDbSpline
210
0.0
220
0.0
230
1.0
 70
     8
 71
     3
 72
     8
 73
     4
 74
     0
 42
0.00000001
 43
0.00000001
 40
0.0
 40
0.0
 40
0.0
 40
0.0
 40
1.0
 40
1.0
 40
1.0
 40
1.0
 10
-15.867343132424
 20
25.313681369032
 30
0.0
 10
-15.76620708452093
 20
25.55784852573986
 30
0.0
 10
-15.76620700677725
 20
25.84215223251427
 30
0.0
 10
-15.867343415167
 20
26.086319242056
 30
0.0
  0
SPLINE
  5
170
330
1F
100
AcDbEntity
  8
0
  6
Continuous
 62
     7
370
    25
100
AcDbSpline
210
0.0
220
0.0
230
1.0
 70
     8
 71
     3
 72
     8
 73
     4
 74
     0
 42
0.00000001
 43
0.00000001
 40
0.0
 40
0.0
 40
0.0
 40
0.0
 40
1.0
 40
1.0
 40
1.0
 40
1.0
 10
15.86734313242
 20
-25.31368136903
 30
0.0
 10
15.76620706687088
 20
-25.55784856837006
 30
0.0
 10
15.76620698890911
 20
-25.84215218939007
 30
0.0
 10
15.86734341516
 20
-26.08631924205
 30
0.0
  0
CIRCLE
  5
171
330
1F
100
AcDbEntity
  8
0
  6
Continuous
 62
     7
370
    25
100
AcDbCircle
 10
0.0
 20
0.0
 30
0.0
 40
4.999999999999998
  0
SPLINE
  5
172
330
1F
100
AcDbEntity
  8
0
  6
Continuous
 62
     7
370
    25
100
AcDbSpline
210
0.0
220
0.0
230
1.0
 70
     8
 71
     3
 72
     8
 73
     4
 74
     0
 42
0.00000001
 43
0.00000001
 40
0.0
 40
0.0
 40
0.0
 40
0.0
 40
1.0
 40
1.0
 40
1.0
 40
1.0
 10
25.31368136903
 20
15.867343132424
 30
0.0
 10
25.55784856837006
 20
15.76620706686156
 30
0.0
 10
25.84215218939007
 20
15.76620698891946
 30
0.0
 10
26.08631924205
 20
15.867343415167
 30
0.0
  0
SPLINE
  5
175
330
1F
100
AcDbEntity
  8
0
  6
Continuous
 62
     7
370
    25
100
AcDbSpline
210
0.0
220
0.0
230
1.0
 70
     8
 71
     3
 72
    14
 73
    10
 74
     0
 42
0.00000001
 43
0.00000001
 40
0.0
 40
0.0
 40
0.0
 40
0.0
 40
0.25
 40
0.25
 40
0.5
 40
0.5
 40
0.75
 40
0.75
 40
1.0
 40
1.0
 40
1.0
 40
1.0
 10
-25.04863958929869
 20
-17.28064525278329
 30
0.0
 10
-24.95825633508498
 20
-17.18763933694804
 30
0.0
 10
-24.88919667059698
 20
-17.0705552701286
 30
0.0
 10
-24.81160467041711
 20
-16.81311325733354
 30
0.0
 10
-24.80312742081133
 20
-16.67299004583212
 30
0.0
 10
-24.85089676262688
 20
-16.39963631016053
 30
0.0
 10
-24.90708630367479
 20
-16.26661981515603
 30
0.0
 10
-25.07444468880604
 20
-16.03554031217764
 30
0.0
 10
-25.18547385844486
 20
-15.93763161778553
 30
0.0
 10
-25.31368133184
 20
-15.86734312541
 30
0.0
  0
SPLINE
  5
179
330
1F
100
AcDbEntity
  8
0
  6
Continuous
 62
     7
370
    25
100
AcDbSpline
210
0.0
220
0.0
230
1.0
 70
     8
 71
     3
 72
    14
 73
    10
 74
     0
 42
0.00000001
 43
0.00000001
 40
0.0
 40
0.0
 40
0.0
 40
0.0
 40
0.25
 40
0.25
 40
0.5
 40
0.5
 40
0.75
 40
0.75
 40
1.0
 40
1.0
 40
1.0
 40
1.0
 10
-17.28064525278578
 20
25.0486395892982
 30
0.0
 10
-17.18763933694808
 20
24.95825633508434
 30
0.0
 10
-17.07055527013208
 20
24.88919667059655
 30
0.0
 10
-16.81311325733914
 20
24.81160467041703
 30
0.0
 10
-16.67299004583468
 20
24.80312742081138
 30
0.0
 10
-16.39963631016492
 20
24.85089676262706
 30
0.0
 10
-16.26661981516054
 20
24.90708630367499
 30
0.0
 10
-16.03554031218807
 20
25.07444468880622
 30
0.0
 10
-15.93763161779349
 20
25.18547385844496
 30
0.0
 10
-15.867343125416
 20
25.31368133184
 30
0.0
  0
SPLINE
  5
17A
330
1F
100
AcDbEntity
  8
0
  6
Continuous
 62
     7
370
    25
100
AcDbSpline
210
0.0
220
0.0
230
1.0
 70
     8
 71
     3
 72
    14
 73
    10
 74
     0
 42
0.00000001
 43
0.00000001
 40
0.0
 40
0.0
 40
0.0
 40
0.0
 40
0.25
 40
0.25
 40
0.5
 40
0.5
 40
0.75
 40
0.75
 40
1.0
 40
1.0
 40
1.0
 40
1.0
 10
17.28064525278521
 20
-25.04863958929475
 30
0.0
 10
17.18763933695012
 20
-24.95825633508006
 30
0.0
 10
17.07055527013063
 20
-24.88919667058807
 30
0.0
 10
16.81311325733551
 20
-24.81160467041376
 30
0.0
 10
16.67299004583616
 20
-24.80312742080506
 30
0.0
 10
16.39963631016137
 20
-24.85089676262301
 30
0.0
 10
16.2666198151569
 20
-24.90708630367072
 30
0.0
 10
16.03554031217797
 20
-25.07444468880295
 30
0.0
 10
15.93763161778566
 20
-25.18547385844263
 30
0.0
 10
15.86734312541
 20
-25.31368133184
 30
0.0
  0
SPLINE
  5
17C
330
1F
100
AcDbEntity
  8
0
  6
Continuous
 62
     7
370
    25
100
AcDbSpline
210
0.0
220
0.0
230
1.0
 70
     8
 71
     3
 72
    14
 73
    10
 74
     0
 42
0.00000001
 43
0.00000001
 40
0.0
 40
0.0
 40
0.0
 40
0.0
 40
0.25
 40
0.25
 40
0.5
 40
0.5
 40
0.75
 40
0.75
 40
1.0
 40
1.0
 40
1.0
 40
1.0
 10
25.04863958929408
 20
17.28064525278785
 30
0.0
 10
24.95825633507954
 20
17.18763933695032
 30
0.0
 10
24.88919667058773
 20
17.07055527013431
 30
0.0
 10
24.81160467041363
 20
16.81311325734117
 30
0.0
 10
24.80312742080535
 20
16.67299004583464
 30
0.0
 10
24.85089676262326
 20
16.39963631016732
 30
0.0
 10
24.90708630367088
 20
16.26661981516146
 30
0.0
 10
25.07444468880309
 20
16.03554031218842
 30
0.0
 10
25.18547385844272
 20
15.93763161779362
 30
0.0
 10
25.31368133184
 20
15.867343125416
 30
0.0
  0
LINE
  5
1B3
330
1F
100
AcDbEntity
  8
0
  6
Continuous
 62
     7
370
    25
100
AcDbLine
 10
-4.1372691422
 20
-28.30625
 30
0.0
 11
-4.1372691422
 21
-28.25
 31
0.0
  0
LINE
  5
1B4
330
1F
100
AcDbEntity
  8
0
  6
Continuous
 62
     7
370
    25
100
AcDbLine
 10
13.0
 20
-28.2
 30
0.0
 11
13.0
 21
-28.25
 31
0.0
  0
LINE
  5
1B5
330
1F
100
AcDbEntity
  8
0
  6
Continuous
 62
     7
370
    25
100
AcDbLine
 10
11.0
 20
-28.2
 30
0.0
 11
11.0
 21
-28.25
 31
0.0
  0
LINE
  5
1B6
330
1F
100
AcDbEntity
  8
0
  6
Continuous
 62
     7
370
    25
100
AcDbLine
 10
-11.0
 20
-28.2
 30
0.0
 11
-11.0
 21
-28.25
 31
0.0
  0
LINE
  5
1B7
330
1F
100
AcDbEntity
  8
0
  6
Continuous
 62
     7
370
    25
100
AcDbLine
 10
13.0
 20
-28.25
 30
0.0
 11
-13.0
 21
-28.25
 31
0.0
  0
LINE
  5
1B8
330
1F
100
AcDbEntity
  8
0
  6
Continuous
 62
     7
370
    25
100
AcDbLine
 10
-13.0
 20
-28.2
 30
0.0
 11
-13.0
 21
-28.25
 31
0.0
  0
LINE
  5
1B9
330
1F
100
AcDbEntity
  8
0
  6
Continuous
 62
     7
370
    25
100
AcDbLine
 10
-0.0750360934
 20
-28.25
 30
0.0
 11
-0.0750360934
 21
-28.3
 31
0.0
  0
LINE
  5
1BA
330
1F
100
AcDbEntity
  8
0
  6
Continuous
 62
     7
370
    25
100
AcDbLine
 10
-0.307104034
 20
-28.25
 30
0.0
 11
-0.307104034
 21
-28.3
 31
0.0
  0
LINE
  5
1BB
330
1F
100
AcDbEntity
  8
0
  6
Continuous
 62
     7
370
    25
100
AcDbLine
 10
6.3442038217
 20
-28.25
 30
0.0
 11
6.3442038217
 21
-28.3
 31
0.0
  0
LINE
  5
1BC
330
1F
100
AcDbEntity
  8
0
  6
Continuous
 62
     7
370
    25
100
AcDbLine
 10
6.0231507431
 20
-28.25
 30
0.0
 11
6.0231507431
 21
-28.3
 31
0.0
  0
LINE
  5
1BD
330
1F
100
AcDbEntity
  8
0
  6
Continuous
 62
     7
370
    25
100
AcDbLine
 10
6.6637112527
 20
-28.25
 30
0.0
 11
6.6637112527
 21
-28.3
 31
0.0
  0
LINE
  5
1BE
330
1F
100
AcDbEntity
  8
0
  6
Continuous
 62
     7
370
    25
100
AcDbLine
 10
-1.0183227176
 20
-28.25
 30
0.0
 11
-1.0183227176
 21
-28.3
 31
0.0
  0
LINE
  5
1BF
330
1F
100
AcDbEntity
  8
0
  6
Continuous
 62
     7
370
    25
100
AcDbLine
 10
-1.2503906582
 20
-28.25
 30
0.0
 11
-1.2503906582
 21
-28.3
 31
0.0
  0
LINE
  5
1C0
330
1F
100
AcDbEntity
  8
0
  6
Continuous
 62
     7
370
    25
100
AcDbLine
 10
-2.6635541401
 20
-28.25
 30
0.0
 11
-2.6635541401
 21
-28.3
 31
0.0
  0
LINE
  5
1C1
330
1F
100
AcDbEntity
  8
0
  6
Continuous
 62
     7
370
    25
100
AcDbLine
 10
-2.8967813163
 20
-28.25
 30
0.0
 11
-2.8967813163
 21
-28.3
 31
0.0
  0
LINE
  5
1C2
330
1F
100
AcDbEntity
  8
0
  6
Continuous
 62
     7
370
    25
100
AcDbLine
 10
-2.4314861996
 20
-28.25
 30
0.0
 11
-2.4314861996
 21
-28.3
 31
0.0
  0
LINE
  5
1C3
330
1F
100
AcDbEntity
  8
0
  6
Continuous
 62
     7
370
    25
100
AcDbLine
 10
-3.6068407643
 20
-28.25
 30
0.0
 11
-3.6068407643
 21
-28.3
 31
0.0
  0
LINE
  5
1C4
330
1F
100
AcDbEntity
  8
0
  6
Continuous
 62
     7
370
    25
100
AcDbLine
 10
-3.8400679406
 20
-28.25
 30
0.0
 11
-3.8400679406
 21
-28.3
 31
0.0
  0
LINE
  5
1C5
330
1F
100
AcDbEntity
  8
0
  6
Continuous
 62
     7
370
    25
100
AcDbLine
 10
-5.7312229299
 20
-28.25
 30
0.0
 11
-5.7312229299
 21
-28.3
 31
0.0
  0
LINE
  5
1C6
330
1F
100
AcDbEntity
  8
0
  6
Continuous
 62
     7
370
    25
100
AcDbLine
 10
-5.9632908705
 20
-28.25
 30
0.0
 11
-5.9632908705
 21
-28.3
 31
0.0
  0
LINE
  5
1C7
330
1F
100
AcDbEntity
  8
0
  6
Continuous
 62
     7
370
    25
100
AcDbLine
 10
-1.4836178344
 20
-28.25
 30
0.0
 11
-1.4836178344
 21
-28.3
 31
0.0
  0
LINE
  5
1C8
330
1F
100
AcDbEntity
  8
0
  6
Continuous
 62
     7
370
    25
100
AcDbLine
 10
-0.5403312102
 20
-28.25
 30
0.0
 11
-0.5403312102
 21
-28.3
 31
0.0
  0
LINE
  5
1C9
330
1F
100
AcDbEntity
  8
0
  6
Continuous
 62
     7
370
    25
100
AcDbLine
 10
-6.1965180467
 20
-28.25
 30
0.0
 11
-6.1965180467
 21
-28.3
 31
0.0
  0
LINE
  5
1CA
330
1F
100
AcDbEntity
  8
0
  6
Continuous
 62
     7
370
    25
100
AcDbLine
 10
-3.3747728238
 20
-28.25
 30
0.0
 11
-3.3747728238
 21
-28.3
 31
0.0
  0
LINE
  5
1CB
330
1F
100
AcDbEntity
  8
0
  6
Continuous
 62
     7
370
    25
100
AcDbLine
 10
-4.7879363057
 20
-28.25
 30
0.0
 11
-4.7879363057
 21
-28.3
 31
0.0
  0
LINE
  5
1CC
330
1F
100
AcDbEntity
  8
0
  6
Continuous
 62
     7
370
    25
100
AcDbLine
 10
-5.0200042463
 20
-28.25
 30
0.0
 11
-5.0200042463
 21
-28.3
 31
0.0
  0
LINE
  5
1CD
330
1F
100
AcDbEntity
  8
0
  6
Continuous
 62
     7
370
    25
100
AcDbLine
 10
-5.2532314225
 20
-28.25
 30
0.0
 11
-5.2532314225
 21
-28.3
 31
0.0
  0
LINE
  5
1CE
330
1F
100
AcDbEntity
  8
0
  6
Continuous
 62
     7
370
    25
100
AcDbLine
 10
2.3076348195
 20
-28.25
 30
0.0
 11
2.3076348195
 21
-28.3
 31
0.0
  0
LINE
  5
1CF
330
1F
100
AcDbEntity
  8
0
  6
Continuous
 62
     7
370
    25
100
AcDbLine
 10
2.0093800425
 20
-28.25
 30
0.0
 11
2.0093800425
 21
-28.3
 31
0.0
  0
LINE
  5
1D0
330
1F
100
AcDbEntity
  8
0
  6
Continuous
 62
     7
370
    25
100
AcDbLine
 10
1.7971295117
 20
-28.25
 30
0.0
 11
1.7971295117
 21
-28.3
 31
0.0
  0
LINE
  5
1D1
330
1F
100
AcDbEntity
  8
0
  6
Continuous
 62
     7
370
    25
100
AcDbLine
 10
4.6795414013
 20
-28.25
 30
0.0
 11
4.6795414013
 21
-28.3
 31
0.0
  0
LINE
  5
1D2
330
1F
100
AcDbEntity
  8
0
  6
Continuous
 62
     7
370
    25
100
AcDbLine
 10
4.1024840764
 20
-28.3
 30
0.0
 11
4.9738768577
 21
-28.3
 31
0.0
  0
LINE
  5
1D3
330
1F
100
AcDbEntity
  8
0
  6
Continuous
 62
     7
370
    25
100
AcDbLine
 10
4.5183524416
 20
-28.25
 30
0.0
 11
4.5183524416
 21
-28.3
 31
0.0
  0
LINE
  5
1D4
330
1F
100
AcDbEntity
  8
0
  6
Continuous
 62
     7
370
    25
100
AcDbLine
 10
4.1913375796
 20
-28.25
 30
0.0
 11
4.1913375796
 21
-28.3
 31
0.0
  0
LINE
  5
1D5
330
1F
100
AcDbEntity
  8
0
  6
Continuous
 62
     7
370
    25
100
AcDbLine
 10
3.4176305732
 20
-28.25
 30
0.0
 11
3.4176305732
 21
-28.3
 31
0.0
  0
LINE
  5
1D6
330
1F
100
AcDbEntity
  8
0
  6
Continuous
 62
     7
370
    25
100
AcDbLine
 10
3.5730785563
 20
-28.25
 30
0.0
 11
3.5730785563
 21
-28.3
 31
0.0
  0
LINE
  5
1D7
330
1F
100
AcDbEntity
  8
0
  6
Continuous
 62
     7
370
    25
100
AcDbLine
 10
5.2654522293
 20
-28.25
 30
0.0
 11
5.2654522293
 21
-28.3
 31
0.0
  0
LINE
  5
1D8
330
1F
100
AcDbEntity
  8
0
  6
Continuous
 62
     7
370
    25
100
AcDbLine
 10
5.0128492569
 20
-28.25
 30
0.0
 11
5.0128492569
 21
-28.3
 31
0.0
  0
LINE
  5
1D9
330
1F
100
AcDbEntity
  8
0
  6
Continuous
 62
     7
370
    25
100
AcDbLine
 10
-4.4395583864
 20
-28.25
 30
0.0
 11
-4.4395583864
 21
-28.3
 31
0.0
  0
LINE
  5
1DA
330
1F
100
AcDbEntity
  8
0
  6
Continuous
 62
     7
370
    25
100
AcDbLine
 10
-4.2699787686
 20
-28.25
 30
0.0
 11
-4.2699787686
 21
-28.3
 31
0.0
  0
LINE
  5
1DB
330
1F
100
AcDbEntity
  8
0
  6
Continuous
 62
     7
370
    25
100
AcDbLine
 10
2.7818174098
 20
-28.25
 30
0.0
 11
2.7818174098
 21
-28.3
 31
0.0
  0
LINE
  5
1DC
330
1F
100
AcDbEntity
  8
0
  6
Continuous
 62
     7
370
    25
100
AcDbLine
 10
2.6156602972
 20
-28.25
 30
0.0
 11
2.6156602972
 21
-28.3
 31
0.0
  0
LINE
  5
1DD
330
1F
100
AcDbEntity
  8
0
  6
Continuous
 62
     7
370
    25
100
AcDbLine
 10
2.6156602972
 20
-28.3
 30
0.0
 11
4.0660127389
 21
-28.3
 31
0.0
  0
LINE
  5
1DE
330
1F
100
AcDbEntity
  8
0
  6
Continuous
 62
     7
370
    25
100
AcDbLine
 10
0.7432186837
 20
-28.3
 30
0.0
 11
0.9127983015
 21
-28.3
 31
0.0
  0
LINE
  5
1DF
330
1F
100
AcDbEntity
  8
0
  6
Continuous
 62
     7
370
    25
100
AcDbLine
 10
0.7432186837
 20
-28.25
 30
0.0
 11
0.7432186837
 21
-28.3
 31
0.0
  0
LINE
  5
1E0
330
1F
100
AcDbEntity
  8
0
  6
Continuous
 62
     7
370
    25
100
AcDbLine
 10
0.9127983015
 20
-28.25
 30
0.0
 11
0.9127983015
 21
-28.3
 31
0.0
  0
LINE
  5
1E1
330
1F
100
AcDbEntity
  8
0
  6
Continuous
 62
     7
370
    25
100
AcDbLine
 10
4.9344076433
 20
-28.25
 30
0.0
 11
4.9344076433
 21
-28.3
 31
0.0
  0
LINE
  5
1E2
330
1F
100
AcDbEntity
  8
0
  6
Continuous
 62
     7
370
    25
100
AcDbLine
 10
-2.0831082803
 20
-28.25
 30
0.0
 11
-2.0831082803
 21
-28.3
 31
0.0
  0
LINE
  5
1E3
330
1F
100
AcDbEntity
  8
0
  6
Continuous
 62
     7
370
    25
100
AcDbLine
 10
-2.0831082803
 20
-28.3
 30
0.0
 11
-1.9135286624
 21
-28.3
 31
0.0
  0
LINE
  5
1E4
330
1F
100
AcDbEntity
  8
0
  6
Continuous
 62
     7
370
    25
100
AcDbLine
 10
-1.9135286624
 20
-28.25
 30
0.0
 11
-1.9135286624
 21
-28.3
 31
0.0
  0
LINE
  5
1E5
330
1F
100
AcDbEntity
  8
0
  6
Continuous
 62
     7
370
    25
100
AcDbLine
 10
5.7528832272
 20
-28.25
 30
0.0
 11
5.7528832272
 21
-28.3
 31
0.0
  0
LINE
  5
1E6
330
1F
100
AcDbEntity
  8
0
  6
Continuous
 62
     7
370
    25
100
AcDbLine
 10
5.0128492569
 20
-28.3
 30
0.0
 11
5.83307431
 21
-28.3
 31
0.0
  0
LINE
  5
1E7
330
1F
100
AcDbEntity
  8
0
  6
Continuous
 62
     7
370
    25
100
AcDbLine
 10
5.4306157113
 20
-28.25
 30
0.0
 11
5.4306157113
 21
-28.3
 31
0.0
  0
LINE
  5
1E8
330
1F
100
AcDbEntity
  8
0
  6
Continuous
 62
     7
370
    25
100
AcDbLine
 10
1.6490785563
 20
-28.25
 30
0.0
 11
1.6490785563
 21
-28.3
 31
0.0
  0
LINE
  5
1E9
330
1F
100
AcDbEntity
  8
0
  6
Continuous
 62
     7
370
    25
100
AcDbLine
 10
-0.6902038217
 20
-28.25
 30
0.0
 11
-0.6902038217
 21
-28.3
 31
0.0
  0
LINE
  5
1EA
330
1F
100
AcDbEntity
  8
0
  6
Continuous
 62
     7
370
    25
100
AcDbLine
 10
-5.403104034
 20
-28.25
 30
0.0
 11
-5.403104034
 21
-28.3
 31
0.0
  0
LINE
  5
1EB
330
1F
100
AcDbEntity
  8
0
  6
Continuous
 62
     7
370
    25
100
AcDbLine
 10
-1.6334904459
 20
-28.25
 30
0.0
 11
-1.6334904459
 21
-28.3
 31
0.0
  0
LINE
  5
1EC
330
1F
100
AcDbEntity
  8
0
  6
Continuous
 62
     7
370
    25
100
AcDbLine
 10
-3.0466539278
 20
-28.25
 30
0.0
 11
-3.0466539278
 21
-28.3
 31
0.0
  0
LINE
  5
1ED
330
1F
100
AcDbEntity
  8
0
  6
Continuous
 62
     7
370
    25
100
AcDbLine
 10
-6.3463906582
 20
-28.25
 30
0.0
 11
-6.3463906582
 21
-28.3
 31
0.0
  0
LINE
  5
1EE
330
1F
100
AcDbEntity
  8
0
  6
Continuous
 62
     7
370
    25
100
AcDbLine
 10
-3.989940552
 20
-28.25
 30
0.0
 11
-3.989940552
 21
-28.3
 31
0.0
  0
LINE
  5
1EF
330
1F
100
AcDbEntity
  8
0
  6
Continuous
 62
     7
370
    25
100
AcDbLine
 10
-0.9101825902
 20
-28.25
 30
0.0
 11
-0.9101825902
 21
-28.3
 31
0.0
  0
LINE
  5
1F0
330
1F
100
AcDbEntity
  8
0
  6
Continuous
 62
     7
370
    25
100
AcDbLine
 10
0.033104034
 20
-28.25
 30
0.0
 11
0.033104034
 21
-28.3
 31
0.0
  0
LINE
  5
1F1
330
1F
100
AcDbEntity
  8
0
  6
Continuous
 62
     7
370
    25
100
AcDbLine
 10
-5.6230828025
 20
-28.25
 30
0.0
 11
-5.6230828025
 21
-28.3
 31
0.0
  0
LINE
  5
1F2
330
1F
100
AcDbEntity
  8
0
  6
Continuous
 62
     7
370
    25
100
AcDbLine
 10
-2.3233460722
 20
-28.25
 30
0.0
 11
-2.3233460722
 21
-28.3
 31
0.0
  0
LINE
  5
1F3
330
1F
100
AcDbEntity
  8
0
  6
Continuous
 62
     7
370
    25
100
AcDbLine
 10
-3.2666326964
 20
-28.25
 30
0.0
 11
-3.2666326964
 21
-28.3
 31
0.0
  0
LINE
  5
1F4
330
1F
100
AcDbEntity
  8
0
  6
Continuous
 62
     7
370
    25
100
AcDbLine
 10
-4.6797961783
 20
-28.25
 30
0.0
 11
-4.6797961783
 21
-28.3
 31
0.0
  0
LINE
  5
1F5
330
1F
100
AcDbEntity
  8
0
  6
Continuous
 62
     7
370
    25
100
AcDbLine
 10
6.8510106157
 20
-28.25
 30
0.0
 11
6.8510106157
 21
-28.3
 31
0.0
  0
LINE
  5
1F6
330
1F
100
AcDbEntity
  8
0
  6
Continuous
 62
     7
370
    25
100
AcDbLine
 10
5.8412059448
 20
-28.25
 30
0.0
 11
5.8412059448
 21
-28.3
 31
0.0
  0
LINE
  5
1F7
330
1F
100
AcDbEntity
  8
0
  6
Continuous
 62
     7
370
    25
100
AcDbLine
 10
2.4213503185
 20
-28.25
 30
0.0
 11
2.4213503185
 21
-28.3
 31
0.0
  0
LINE
  5
1F8
330
1F
100
AcDbEntity
  8
0
  6
Continuous
 62
     7
370
    25
100
AcDbLine
 10
1.5981825902
 20
-28.25
 30
0.0
 11
1.5981825902
 21
-28.3
 31
0.0
  0
LINE
  5
1F9
330
1F
100
AcDbEntity
  8
0
  6
Continuous
 62
     7
370
    25
100
AcDbLine
 10
-3.0970530786
 20
-28.25
 30
0.0
 11
-3.0970530786
 21
-28.3
 31
0.0
  0
LINE
  5
1FA
330
1F
100
AcDbEntity
  8
0
  6
Continuous
 62
     7
370
    25
100
AcDbLine
 10
-0.7406029724
 20
-28.25
 30
0.0
 11
-0.7406029724
 21
-28.3
 31
0.0
  0
LINE
  5
1FB
330
1F
100
AcDbEntity
  8
0
  6
Continuous
 62
     7
370
    25
100
AcDbLine
 10
-4.0403397028
 20
-28.25
 30
0.0
 11
-4.0403397028
 21
-28.3
 31
0.0
  0
LINE
  5
1FC
330
1F
100
AcDbEntity
  8
0
  6
Continuous
 62
     7
370
    25
100
AcDbLine
 10
-6.3967898089
 20
-28.25
 30
0.0
 11
-6.3967898089
 21
-28.3
 31
0.0
  0
LINE
  5
1FD
330
1F
100
AcDbEntity
  8
0
  6
Continuous
 62
     7
370
    25
100
AcDbLine
 10
-5.4535031847
 20
-28.25
 30
0.0
 11
-5.4535031847
 21
-28.3
 31
0.0
  0
LINE
  5
1FE
330
1F
100
AcDbEntity
  8
0
  6
Continuous
 62
     7
370
    25
100
AcDbLine
 10
-1.6838895966
 20
-28.25
 30
0.0
 11
-1.6838895966
 21
-28.3
 31
0.0
  0
LINE
  5
1FF
330
1F
100
AcDbEntity
  8
0
  6
Continuous
 62
     7
370
    25
100
AcDbLine
 10
6.9152101911
 20
-28.25
 30
0.0
 11
6.9152101911
 21
-28.3
 31
0.0
  0
LINE
  5
200
330
1F
100
AcDbEntity
  8
0
  6
Continuous
 62
     7
370
    25
100
AcDbLine
 10
-3.2454352442
 20
-28.25
 30
0.0
 11
-3.2454352442
 21
-28.3
 31
0.0
  0
LINE
  5
201
330
1F
100
AcDbEntity
  8
0
  6
Continuous
 62
     7
370
    25
100
AcDbLine
 10
-4.6585987261
 20
-28.25
 30
0.0
 11
-4.6585987261
 21
-28.3
 31
0.0
  0
LINE
  5
202
330
1F
100
AcDbEntity
  8
0
  6
Continuous
 62
     7
370
    25
100
AcDbLine
 10
-2.30214862
 20
-28.25
 30
0.0
 11
-2.30214862
 21
-28.3
 31
0.0
  0
LINE
  5
203
330
1F
100
AcDbEntity
  8
0
  6
Continuous
 62
     7
370
    25
100
AcDbLine
 10
-5.6018853503
 20
-28.25
 30
0.0
 11
-5.6018853503
 21
-28.3
 31
0.0
  0
LINE
  5
204
330
1F
100
AcDbEntity
  8
0
  6
Continuous
 62
     7
370
    25
100
AcDbLine
 10
-0.888985138
 20
-28.25
 30
0.0
 11
-0.888985138
 21
-28.3
 31
0.0
  0
LINE
  5
205
330
1F
100
AcDbEntity
  8
0
  6
Continuous
 62
     7
370
    25
100
AcDbLine
 10
0.0543014862
 20
-28.25
 30
0.0
 11
0.0543014862
 21
-28.3
 31
0.0
  0
LINE
  5
206
330
1F
100
AcDbEntity
  8
0
  6
Continuous
 62
     7
370
    25
100
AcDbLine
 10
4.9738768577
 20
-28.25
 30
0.0
 11
4.9738768577
 21
-28.3
 31
0.0
  0
LINE
  5
207
330
1F
100
AcDbEntity
  8
0
  6
Continuous
 62
     7
370
    25
100
AcDbLine
 10
-5.4993375796
 20
-28.25
 30
0.0
 11
-5.4993375796
 21
-28.3
 31
0.0
  0
LINE
  5
208
330
1F
100
AcDbEntity
  8
0
  6
Continuous
 62
     7
370
    25
100
AcDbLine
 10
-5.5533060027
 20
-28.3
 30
0.0
 11
-5.4993375796
 21
-28.3
 31
0.0
  0
LINE
  5
209
330
1F
100
AcDbEntity
  8
0
  6
Continuous
 62
     7
370
    25
100
AcDbLine
 10
-2.2546921444
 20
-28.3
 30
0.0
 11
-2.11579306
 21
-28.3
 31
0.0
  0
LINE
  5
20A
330
1F
100
AcDbEntity
  8
0
  6
Continuous
 62
     7
370
    25
100
AcDbLine
 10
-2.2546921444
 20
-28.25
 30
0.0
 11
-2.2546921444
 21
-28.3
 31
0.0
  0
LINE
  5
20B
330
1F
100
AcDbEntity
  8
0
  6
Continuous
 62
     7
370
    25
100
AcDbLine
 10
2.0579191574
 20
-28.3
 30
0.0
 11
2.24228526
 21
-28.3
 31
0.0
  0
LINE
  5
20C
330
1F
100
AcDbEntity
  8
0
  6
Continuous
 62
     7
370
    25
100
AcDbLine
 10
-6.458522293
 20
-28.25
 30
0.0
 11
-6.458522293
 21
-28.3
 31
0.0
  0
LINE
  5
20D
330
1F
100
AcDbEntity
  8
0
  6
Continuous
 62
     7
370
    25
100
AcDbLine
 10
-6.6069044586
 20
-28.3
 30
0.0
 11
-6.4395044522
 21
-28.3
 31
0.0
  0
LINE
  5
20E
330
1F
100
AcDbEntity
  8
0
  6
Continuous
 62
     7
370
    25
100
AcDbLine
 10
-6.6069044586
 20
-28.25
 30
0.0
 11
-6.6069044586
 21
-28.3
 31
0.0
  0
LINE
  5
20F
330
1F
100
AcDbEntity
  8
0
  6
Continuous
 62
     7
370
    25
100
AcDbLine
 10
4.0660127389
 20
-28.25
 30
0.0
 11
4.0660127389
 21
-28.3
 31
0.0
  0
LINE
  5
210
330
1F
100
AcDbEntity
  8
0
  6
Continuous
 62
     7
370
    25
100
AcDbLine
 10
0.1311252654
 20
-28.25
 30
0.0
 11
0.1311252654
 21
-28.3
 31
0.0
  0
LINE
  5
211
330
1F
100
AcDbEntity
  8
0
  6
Continuous
 62
     7
370
    25
100
AcDbLine
 10
0.036492569
 20
-28.3
 30
0.0
 11
0.593163482
 21
-28.3
 31
0.0
  0
LINE
  5
212
330
1F
100
AcDbEntity
  8
0
  6
Continuous
 62
     7
370
    25
100
AcDbLine
 10
0.593163482
 20
-28.25
 30
0.0
 11
0.593163482
 21
-28.3
 31
0.0
  0
LINE
  5
213
330
1F
100
AcDbEntity
  8
0
  6
Continuous
 62
     7
370
    25
100
AcDbLine
 10
7.0619193206
 20
-28.25
 30
0.0
 11
7.0619193206
 21
-28.3
 31
0.0
  0
LINE
  5
214
330
1F
100
AcDbEntity
  8
0
  6
Continuous
 62
     7
370
    25
100
AcDbLine
 10
6.9029384289
 20
-28.3
 30
0.0
 11
7.4611380042
 21
-28.3
 31
0.0
  0
LINE
  5
215
330
1F
100
AcDbEntity
  8
0
  6
Continuous
 62
     7
370
    25
100
AcDbLine
 10
-3.2127504644
 20
-28.3
 30
0.0
 11
-3.1297378583
 21
-28.3
 31
0.0
  0
LINE
  5
216
330
1F
100
AcDbEntity
  8
0
  6
Continuous
 62
     7
370
    25
100
AcDbLine
 10
-3.013969148
 20
-28.3
 30
0.0
 11
-2.9998046709
 21
-28.3
 31
0.0
  0
LINE
  5
217
330
1F
100
AcDbEntity
  8
0
  6
Continuous
 62
     7
370
    25
100
AcDbLine
 10
-3.1587855626
 20
-28.25
 30
0.0
 11
-3.1587855626
 21
-28.3
 31
0.0
  0
LINE
  5
218
330
1F
100
AcDbEntity
  8
0
  6
Continuous
 62
     7
370
    25
100
AcDbLine
 10
5.83307431
 20
-28.25
 30
0.0
 11
5.83307431
 21
-28.3
 31
0.0
  0
LINE
  5
219
330
1F
100
AcDbEntity
  8
0
  6
Continuous
 62
     7
370
    25
100
AcDbLine
 10
-3.9501571125
 20
-28.3
 30
0.0
 11
-3.9006161236
 21
-28.3
 31
0.0
  0
LINE
  5
21A
330
1F
100
AcDbEntity
  8
0
  6
Continuous
 62
     7
370
    25
100
AcDbLine
 10
-4.1374012739
 20
-28.25
 30
0.0
 11
-4.1374012739
 21
-28.3
 31
0.0
  0
LINE
  5
21B
330
1F
100
AcDbEntity
  8
0
  6
Continuous
 62
     7
370
    25
100
AcDbLine
 10
-4.6259139463
 20
-28.3
 30
0.0
 11
-4.1374012739
 21
-28.3
 31
0.0
  0
LINE
  5
21C
330
1F
100
AcDbEntity
  8
0
  6
Continuous
 62
     7
370
    25
100
AcDbLine
 10
1.2573503185
 20
-28.25
 30
0.0
 11
1.2573503185
 21
-28.3
 31
0.0
  0
LINE
  5
21D
330
1F
100
AcDbEntity
  8
0
  6
Continuous
 62
     7
370
    25
100
AcDbLine
 10
1.2573503185
 20
-28.3
 30
0.0
 11
1.5788450106
 21
-28.3
 31
0.0
  0
LINE
  5
21E
330
1F
100
AcDbEntity
  8
0
  6
Continuous
 62
     7
370
    25
100
AcDbLine
 10
1.4092653928
 20
-28.25
 30
0.0
 11
1.4092653928
 21
-28.3
 31
0.0
  0
LINE
  5
21F
330
1F
100
AcDbEntity
  8
0
  6
Continuous
 62
     7
370
    25
100
AcDbLine
 10
1.2002165605
 20
-28.25
 30
0.0
 11
1.2002165605
 21
-28.3
 31
0.0
  0
LINE
  5
220
330
1F
100
AcDbEntity
  8
0
  6
Continuous
 62
     7
370
    25
100
AcDbLine
 10
-0.8865180467
 20
-28.25
 30
0.0
 11
-0.8865180467
 21
-28.3
 31
0.0
  0
LINE
  5
221
330
1F
100
AcDbEntity
  8
0
  6
Continuous
 62
     7
370
    25
100
AcDbLine
 10
-1.710403397
 20
-28.25
 30
0.0
 11
-1.710403397
 21
-28.3
 31
0.0
  0
LINE
  5
222
330
1F
100
AcDbEntity
  8
0
  6
Continuous
 62
     7
370
    25
100
AcDbLine
 10
2.5327303609
 20
-28.25
 30
0.0
 11
2.5327303609
 21
-28.3
 31
0.0
  0
LINE
  5
223
330
1F
100
AcDbEntity
  8
0
  6
Continuous
 62
     7
370
    25
100
AcDbLine
 10
1.0242887473
 20
-28.25
 30
0.0
 11
1.0242887473
 21
-28.3
 31
0.0
  0
LINE
  5
224
330
1F
100
AcDbEntity
  8
0
  6
Continuous
 62
     7
370
    25
100
AcDbLine
 10
1.0242887473
 20
-28.3
 30
0.0
 11
1.134867001
 21
-28.3
 31
0.0
  0
LINE
  5
225
330
1F
100
AcDbEntity
  8
0
  6
Continuous
 62
     7
370
    25
100
AcDbLine
 10
-0.8865180467
 20
-28.3
 30
0.0
 11
-0.7732877522
 21
-28.3
 31
0.0
  0
LINE
  5
226
330
1F
100
AcDbEntity
  8
0
  6
Continuous
 62
     7
370
    25
100
AcDbLine
 10
-0.4554942798
 20
-28.3
 30
0.0
 11
-0.4201740977
 21
-28.3
 31
0.0
  0
LINE
  5
227
330
1F
100
AcDbEntity
  8
0
  6
Continuous
 62
     7
370
    25
100
AcDbLine
 10
1.5788450106
 20
-28.25
 30
0.0
 11
1.5788450106
 21
-28.3
 31
0.0
  0
LINE
  5
228
330
1F
100
AcDbEntity
  8
0
  6
Continuous
 62
     7
370
    25
100
AcDbLine
 10
7.4611380042
 20
-28.25
 30
0.0
 11
7.4611380042
 21
-28.3
 31
0.0
  0
LINE
  5
229
330
1F
100
AcDbEntity
  8
0
  6
Continuous
 62
     7
370
    25
100
AcDbLine
 10
7.6822590234
 20
-28.25
 30
0.0
 11
7.6822590234
 21
-28.3
 31
0.0
  0
LINE
  5
22A
330
1F
100
AcDbEntity
  8
0
  6
Continuous
 62
     7
370
    25
100
AcDbLine
 10
-1.8117154989
 20
-28.3
 30
0.0
 11
-1.6712823779
 21
-28.3
 31
0.0
  0
LINE
  5
22B
330
1F
100
AcDbEntity
  8
0
  6
Continuous
 62
     7
370
    25
100
AcDbLine
 10
1.681763336
 20
-28.3
 30
0.0
 11
1.6866921444
 21
-28.3
 31
0.0
  0
LINE
  5
22C
330
1F
100
AcDbEntity
  8
0
  6
Continuous
 62
     7
370
    25
100
AcDbLine
 10
-7.0960084926
 20
-28.25
 30
0.0
 11
-7.0960084926
 21
-28.3
 31
0.0
  0
LINE
  5
22D
330
1F
100
AcDbEntity
  8
0
  6
Continuous
 62
     7
370
    25
100
AcDbLine
 10
-7.2963906582
 20
-28.25
 30
0.0
 11
-7.2963906582
 21
-28.3
 31
0.0
  0
LINE
  5
22E
330
1F
100
AcDbEntity
  8
0
  6
Continuous
 62
     7
370
    25
100
AcDbLine
 10
-7.2963906582
 20
-28.3
 30
0.0
 11
-6.935537155
 21
-28.3
 31
0.0
  0
LINE
  5
22F
330
1F
100
AcDbEntity
  8
0
  6
Continuous
 62
     7
370
    25
100
AcDbLine
 10
-6.935537155
 20
-28.25
 30
0.0
 11
-6.935537155
 21
-28.3
 31
0.0
  0
LINE
  5
230
330
1F
100
AcDbEntity
  8
0
  6
Continuous
 62
     7
370
    25
100
AcDbLine
 10
7.8559787686
 20
-28.25
 30
0.0
 11
7.8559787686
 21
-28.3
 31
0.0
  0
LINE
  5
231
330
1F
100
AcDbEntity
  8
0
  6
Continuous
 62
     7
370
    25
100
AcDbLine
 10
7.9222760085
 20
-28.25
 30
0.0
 11
7.9222760085
 21
-28.3
 31
0.0
  0
LINE
  5
232
330
1F
100
AcDbEntity
  8
0
  6
Continuous
 62
     7
370
    25
100
AcDbLine
 10
-6.8196687898
 20
-28.25
 30
0.0
 11
-6.8196687898
 21
-28.3
 31
0.0
  0
LINE
  5
233
330
1F
100
AcDbEntity
  8
0
  6
Continuous
 62
     7
370
    25
100
AcDbLine
 10
0.6550828025
 20
-28.25
 30
0.0
 11
0.6550828025
 21
-28.3
 31
0.0
  0
LINE
  5
234
330
1F
100
AcDbEntity
  8
0
  6
Continuous
 62
     7
370
    25
100
AcDbLine
 10
-6.7381910828
 20
-28.25
 30
0.0
 11
-6.7381910828
 21
-28.3
 31
0.0
  0
LINE
  5
235
330
1F
100
AcDbEntity
  8
0
  6
Continuous
 62
     7
370
    25
100
AcDbLine
 10
4.1024840764
 20
-28.25
 30
0.0
 11
4.1024840764
 21
-28.3
 31
0.0
  0
LINE
  5
236
330
1F
100
AcDbEntity
  8
0
  6
Continuous
 62
     7
370
    25
100
AcDbLine
 10
2.6155711253
 20
-28.25
 30
0.0
 11
2.6155711253
 21
-28.3
 31
0.0
  0
LINE
  5
237
330
1F
100
AcDbEntity
  8
0
  6
Continuous
 62
     7
370
    25
100
AcDbLine
 10
-6.6649936306
 20
-28.25
 30
0.0
 11
-6.6649936306
 21
-28.3
 31
0.0
  0
LINE
  5
238
330
1F
100
AcDbEntity
  8
0
  6
Continuous
 62
     7
370
    25
100
AcDbLine
 10
-4.1298068265
 20
-28.3
 30
0.0
 11
-4.0730244825
 21
-28.3
 31
0.0
  0
LINE
  5
239
330
1F
100
AcDbEntity
  8
0
  6
Continuous
 62
     7
370
    25
100
AcDbLine
 10
-27.7
 20
-16.65
 30
0.0
 11
-27.7
 21
16.65
 31
0.0
  0
LINE
  5
23A
330
1F
100
AcDbEntity
  8
0
  6
Continuous
 62
     7
370
    25
100
AcDbLine
 10
-25.7
 20
18.65
 30
0.0
 11
-23.15
 21
18.65
 31
0.0
  0
LINE
  5
23B
330
1F
100
AcDbEntity
  8
0
  6
Continuous
 62
     7
370
    25
100
AcDbLine
 10
-18.65
 20
23.15
 30
0.0
 11
-18.65
 21
25.7
 31
0.0
  0
LINE
  5
23C
330
1F
100
AcDbEntity
  8
0
  6
Continuous
 62
     7
370
    25
100
AcDbLine
 10
-16.65
 20
27.7
 30
0.0
 11
16.65
 21
27.7
 31
0.0
  0
LINE
  5
23D
330
1F
100
AcDbEntity
  8
0
  6
Continuous
 62
     7
370
    25
100
AcDbLine
 10
18.65
 20
25.7
 30
0.0
 11
18.65
 21
23.15
 31
0.0
  0
LINE
  5
23E
330
1F
100
AcDbEntity
  8
0
  6
Continuous
 62
     7
370
    25
100
AcDbLine
 10
23.15
 20
18.65
 30
0.0
 11
25.7
 21
18.65
 31
0.0
  0
LINE
  5
23F
330
1F
100
AcDbEntity
  8
0
  6
Continuous
 62
     7
370
    25
100
AcDbLine
 10
27.7
 20
16.65
 30
0.0
 11
27.7
 21
-16.65
 31
0.0
  0
LINE
  5
240
330
1F
100
AcDbEntity
  8
0
  6
Continuous
 62
     7
370
    25
100
AcDbLine
 10
25.7
 20
-18.65
 30
0.0
 11
23.15
 21
-18.65
 31
0.0
  0
LINE
  5
241
330
1F
100
AcDbEntity
  8
0
  6
Continuous
 62
     7
370
    25
100
AcDbLine
 10
18.65
 20
-23.15
 30
0.0
 11
18.65
 21
-25.7
 31
0.0
  0
LINE
  5
242
330
1F
100
AcDbEntity
  8
0
  6
Continuous
 62
     7
370
    25
100
AcDbLine
 10
16.65
 20
-27.7
 30
0.0
 11
-16.65
 21
-27.7
 31
0.0
  0
LINE
  5
243
330
1F
100
AcDbEntity
  8
0
  6
Continuous
 62
     7
370
    25
100
AcDbLine
 10
-18.65
 20
-25.7
 30
0.0
 11
-18.65
 21
-23.15
 31
0.0
  0
LINE
  5
244
330
1F
100
AcDbEntity
  8
0
  6
Continuous
 62
     7
370
    25
100
AcDbLine
 10
-23.15
 20
-18.65
 30
0.0
 11
-25.7
 21
-18.65
 31
0.0
  0
LINE
  5
245
330
1F
100
AcDbEntity
  8
0
  6
Continuous
 62
     7
370
    25
100
AcDbLine
 10
23.15
 20
-19.15
 30
0.0
 11
23.15
 21
-18.65
 31
0.0
  0
LINE
  5
246
330
1F
100
AcDbEntity
  8
0
  6
Continuous
 62
     7
370
    25
100
AcDbLine
 10
19.15
 20
-23.15
 30
0.0
 11
18.65
 21
-23.15
 31
0.0
  0
LINE
  5
247
330
1F
100
AcDbEntity
  8
0
  6
Continuous
 62
     7
370
    25
100
AcDbLine
 10
28.2
 20
-16.65
 30
0.0
 11
27.7
 21
-16.65
 31
0.0
  0
LINE
  5
248
330
1F
100
AcDbEntity
  8
0
  6
Continuous
 62
     7
370
    25
100
AcDbLine
 10
25.7
 20
-19.15
 30
0.0
 11
25.7
 21
-18.65
 31
0.0
  0
LINE
  5
249
330
1F
100
AcDbEntity
  8
0
  6
Continuous
 62
     7
370
    25
100
AcDbLine
 10
25.7
 20
-19.15
 30
0.0
 11
23.15
 21
-19.15
 31
0.0
  0
LINE
  5
24A
330
1F
100
AcDbEntity
  8
0
  6
Continuous
 62
     7
370
    25
100
AcDbLine
 10
19.15
 20
-23.15
 30
0.0
 11
19.15
 21
-25.7
 31
0.0
  0
LINE
  5
24B
330
1F
100
AcDbEntity
  8
0
  6
Continuous
 62
     7
370
    25
100
AcDbLine
 10
19.15
 20
-25.7
 30
0.0
 11
18.65
 21
-25.7
 31
0.0
  0
LINE
  5
24C
330
1F
100
AcDbEntity
  8
0
  6
Continuous
 62
     7
370
    25
100
AcDbLine
 10
16.65
 20
28.2
 30
0.0
 11
16.65
 21
27.7
 31
0.0
  0
LINE
  5
24D
330
1F
100
AcDbEntity
  8
0
  6
Continuous
 62
     7
370
    25
100
AcDbLine
 10
19.15
 20
25.7
 30
0.0
 11
18.65
 21
25.7
 31
0.0
  0
LINE
  5
24E
330
1F
100
AcDbEntity
  8
0
  6
Continuous
 62
     7
370
    25
100
AcDbLine
 10
16.65
 20
-28.2
 30
0.0
 11
16.65
 21
-27.7
 31
0.0
  0
LINE
  5
24F
330
1F
100
AcDbEntity
  8
0
  6
Continuous
 62
     7
370
    25
100
AcDbLine
 10
-16.65
 20
28.2
 30
0.0
 11
16.65
 21
28.2
 31
0.0
  0
LINE
  5
250
330
1F
100
AcDbEntity
  8
0
  6
Continuous
 62
     7
370
    25
100
AcDbLine
 10
-16.65
 20
28.2
 30
0.0
 11
-16.65
 21
27.7
 31
0.0
  0
LINE
  5
251
330
1F
100
AcDbEntity
  8
0
  6
Continuous
 62
     7
370
    25
100
AcDbLine
 10
-19.15
 20
-23.15
 30
0.0
 11
-18.65
 21
-23.15
 31
0.0
  0
LINE
  5
252
330
1F
100
AcDbEntity
  8
0
  6
Continuous
 62
     7
370
    25
100
AcDbLine
 10
-23.15
 20
-19.15
 30
0.0
 11
-23.15
 21
-18.65
 31
0.0
  0
LINE
  5
253
330
1F
100
AcDbEntity
  8
0
  6
Continuous
 62
     7
370
    25
100
AcDbLine
 10
-19.15
 20
25.7
 30
0.0
 11
-18.65
 21
25.7
 31
0.0
  0
LINE
  5
254
330
1F
100
AcDbEntity
  8
0
  6
Continuous
 62
     7
370
    25
100
AcDbLine
 10
-16.65
 20
-28.2
 30
0.0
 11
-16.65
 21
-27.7
 31
0.0
  0
LINE
  5
255
330
1F
100
AcDbEntity
  8
0
  6
Continuous
 62
     7
370
    25
100
AcDbLine
 10
-19.15
 20
-25.7
 30
0.0
 11
-18.65
 21
-25.7
 31
0.0
  0
LINE
  5
256
330
1F
100
AcDbEntity
  8
0
  6
Continuous
 62
     7
370
    25
100
AcDbLine
 10
-19.15
 20
23.15
 30
0.0
 11
-19.15
 21
25.7
 31
0.0
  0
LINE
  5
257
330
1F
100
AcDbEntity
  8
0
  6
Continuous
 62
     7
370
    25
100
AcDbLine
 10
-19.15
 20
23.15
 30
0.0
 11
-18.65
 21
23.15
 31
0.0
  0
LINE
  5
258
330
1F
100
AcDbEntity
  8
0
  6
Continuous
 62
     7
370
    25
100
AcDbLine
 10
-19.15
 20
-25.7
 30
0.0
 11
-19.15
 21
-23.15
 31
0.0
  0
LINE
  5
259
330
1F
100
AcDbEntity
  8
0
  6
Continuous
 62
     7
370
    25
100
AcDbLine
 10
-23.15
 20
19.15
 30
0.0
 11
-23.15
 21
18.65
 31
0.0
  0
LINE
  5
25A
330
1F
100
AcDbEntity
  8
0
  6
Continuous
 62
     7
370
    25
100
AcDbLine
 10
23.15
 20
19.15
 30
0.0
 11
25.7
 21
19.15
 31
0.0
  0
LINE
  5
25B
330
1F
100
AcDbEntity
  8
0
  6
Continuous
 62
     7
370
    25
100
AcDbLine
 10
25.7
 20
19.15
 30
0.0
 11
25.7
 21
18.65
 31
0.0
  0
LINE
  5
25C
330
1F
100
AcDbEntity
  8
0
  6
Continuous
 62
     7
370
    25
100
AcDbLine
 10
23.15
 20
19.15
 30
0.0
 11
23.15
 21
18.65
 31
0.0
  0
LINE
  5
25D
330
1F
100
AcDbEntity
  8
0
  6
Continuous
 62
     7
370
    25
100
AcDbLine
 10
-25.7
 20
19.15
 30
0.0
 11
-23.15
 21
19.15
 31
0.0
  0
LINE
  5
25E
330
1F
100
AcDbEntity
  8
0
  6
Continuous
 62
     7
370
    25
100
AcDbLine
 10
-25.7
 20
19.15
 30
0.0
 11
-25.7
 21
18.65
 31
0.0
  0
LINE
  5
25F
330
1F
100
AcDbEntity
  8
0
  6
Continuous
 62
     7
370
    25
100
AcDbLine
 10
-23.15
 20
-19.15
 30
0.0
 11
-25.7
 21
-19.15
 31
0.0
  0
LINE
  5
260
330
1F
100
AcDbEntity
  8
0
  6
Continuous
 62
     7
370
    25
100
AcDbLine
 10
-25.7
 20
-19.15
 30
0.0
 11
-25.7
 21
-18.65
 31
0.0
  0
LINE
  5
261
330
1F
100
AcDbEntity
  8
0
  6
Continuous
 62
     7
370
    25
100
AcDbLine
 10
-28.2
 20
16.65
 30
0.0
 11
-27.7
 21
16.65
 31
0.0
  0
LINE
  5
262
330
1F
100
AcDbEntity
  8
0
  6
Continuous
 62
     7
370
    25
100
AcDbLine
 10
-28.2
 20
-16.65
 30
0.0
 11
-27.7
 21
-16.65
 31
0.0
  0
LINE
  5
263
330
1F
100
AcDbEntity
  8
0
  6
Continuous
 62
     7
370
    25
100
AcDbLine
 10
16.65
 20
-28.2
 30
0.0
 11
-16.65
 21
-28.2
 31
0.0
  0
LINE
  5
264
330
1F
100
AcDbEntity
  8
0
  6
Continuous
 62
     7
370
    25
100
AcDbLine
 10
19.15
 20
25.7
 30
0.0
 11
19.15
 21
23.15
 31
0.0
  0
LINE
  5
265
330
1F
100
AcDbEntity
  8
0
  6
Continuous
 62
     7
370
    25
100
AcDbLine
 10
19.15
 20
23.15
 30
0.0
 11
18.65
 21
23.15
 31
0.0
  0
LINE
  5
266
330
1F
100
AcDbEntity
  8
0
  6
Continuous
 62
     7
370
    25
100
AcDbLine
 10
28.2
 20
16.65
 30
0.0
 11
28.2
 21
-16.65
 31
0.0
  0
LINE
  5
267
330
1F
100
AcDbEntity
  8
0
  6
Continuous
 62
     7
370
    25
100
AcDbLine
 10
28.2
 20
16.65
 30
0.0
 11
27.7
 21
16.65
 31
0.0
  0
LINE
  5
268
330
1F
100
AcDbEntity
  8
0
  6
Continuous
 62
     7
370
    25
100
AcDbLine
 10
-28.2
 20
-16.65
 30
0.0
 11
-28.2
 21
16.65
 31
0.0
  0
LINE
  5
269
330
1F
100
AcDbEntity
  8
0
  6
Continuous
 62
     7
370
    25
100
AcDbLine
 10
26.3068123197
 20
17.320890797
 30
0.0
 11
26.4064689071
 21
17.1717859919
 31
0.0
  0
LINE
  5
26A
330
1F
100
AcDbEntity
  8
0
  6
Continuous
 62
     7
370
    25
100
AcDbLine
 10
-26.3068123197
 20
-17.320890797
 30
0.0
 11
-26.4064689071
 21
-17.1717859919
 31
0.0
  0
LINE
  5
26B
330
1F
100
AcDbEntity
  8
0
  6
Continuous
 62
     7
370
    25
100
AcDbLine
 10
-17.320890797
 20
26.3068123197
 30
0.0
 11
-17.1717859919
 21
26.4064689071
 31
0.0
  0
LINE
  5
26C
330
1F
100
AcDbEntity
  8
0
  6
Continuous
 62
     7
370
    25
100
AcDbLine
 10
17.320890797
 20
-26.3068123197
 30
0.0
 11
17.1717859919
 21
-26.4064689071
 31
0.0
  0
ARC
  5
26D
330
1F
100
AcDbEntity
  8
0
  6
Continuous
 62
     7
370
    25
100
AcDbCircle
 10
-25.7
 20
16.65
 30
0.0
 40
1.999999999999996
100
AcDbArc
 50
90.0
 51
180.0
  0
ARC
  5
26E
330
1F
100
AcDbEntity
  8
0
  6
Continuous
 62
     7
370
    25
100
AcDbCircle
 10
-23.15
 20
23.15
 30
0.0
 40
4.500000000000011
100
AcDbArc
 50
270.0
 51
0.0
  0
ARC
  5
26F
330
1F
100
AcDbEntity
  8
0
  6
Continuous
 62
     7
370
    25
100
AcDbCircle
 10
-16.65
 20
25.7
 30
0.0
 40
1.999999999999996
100
AcDbArc
 50
90.0
 51
180.0
  0
ARC
  5
270
330
1F
100
AcDbEntity
  8
0
  6
Continuous
 62
     7
370
    25
100
AcDbCircle
 10
16.65
 20
25.7
 30
0.0
 40
1.999999999999996
100
AcDbArc
 50
0.0
 51
90.0
  0
ARC
  5
271
330
1F
100
AcDbEntity
  8
0
  6
Continuous
 62
     7
370
    25
100
AcDbCircle
 10
23.15
 20
23.15
 30
0.0
 40
4.500000000000011
100
AcDbArc
 50
180.0
 51
270.0
  0
ARC
  5
272
330
1F
100
AcDbEntity
  8
0
  6
Continuous
 62
     7
370
    25
100
AcDbCircle
 10
25.7
 20
16.65
 30
0.0
 40
1.999999999999996
100
AcDbArc
 50
0.0
 51
90.0
  0
ARC
  5
273
330
1F
100
AcDbEntity
  8
0
  6
Continuous
 62
     7
370
    25
100
AcDbCircle
 10
25.7
 20
-16.65
 30
0.0
 40
1.999999999999996
100
AcDbArc
 50
270.0
 51
0.0
  0
ARC
  5
274
330
1F
100
AcDbEntity
  8
0
  6
Continuous
 62
     7
370
    25
100
AcDbCircle
 10
23.15
 20
-23.15
 30
0.0
 40
4.500000000000011
100
AcDbArc
 50
90.0
 51
180.0
  0
ARC
  5
275
330
1F
100
AcDbEntity
  8
0
  6
Continuous
 62
     7
370
    25
100
AcDbCircle
 10
16.65
 20
-25.7
 30
0.0
 40
1.999999999999996
100
AcDbArc
 50
270.0
 51
0.0
  0
ARC
  5
276
330
1F
100
AcDbEntity
  8
0
  6
Continuous
 62
     7
370
    25
100
AcDbCircle
 10
-16.65
 20
-25.7
 30
0.0
 40
1.999999999999996
100
AcDbArc
 50
180.0
 51
270.0
  0
ARC
  5
277
330
1F
100
AcDbEntity
  8
0
  6
Continuous
 62
     7
370
    25
100
AcDbCircle
 10
-23.15
 20
-23.15
 30
0.0
 40
4.500000000000011
100
AcDbArc
 50
0.0
 51
90.0
  0
ARC
  5
278
330
1F
100
AcDbEntity
  8
0
  6
Continuous
 62
     7
370
    25
100
AcDbCircle
 10
-25.7
 20
-16.65
 30
0.0
 40
1.999999999999996
100
AcDbArc
 50
180.0
 51
270.0
  0
ARC
  5
279
330
1F
100
AcDbEntity
  8
0
  6
Continuous
 62
     7
370
    25
100
AcDbCircle
 10
-25.7
 20
-16.8
 30
0.0
 40
0.8095000000157351
100
AcDbArc
 50
216.4225205419
 51
323.5760190417
  0
ARC
  5
27A
330
1F
100
AcDbEntity
  8
0
  6
Continuous
 62
     7
370
    25
100
AcDbCircle
 10
-16.8
 20
25.7
 30
0.0
 40
0.8094999999993566
100
AcDbArc
 50
126.4225205419
 51
233.5760190413
  0
ARC
  5
27B
330
1F
100
AcDbEntity
  8
0
  6
Continuous
 62
     7
370
    25
100
AcDbCircle
 10
16.8
 20
-25.7
 30
0.0
 40
0.8095000000305579
100
AcDbArc
 50
306.4225205425
 51
53.5760190414
  0
ARC
  5
27C
330
1F
100
AcDbEntity
  8
0
  6
Continuous
 62
     7
370
    25
100
AcDbCircle
 10
25.7
 20
16.8
 30
0.0
 40
0.8095000000141271
100
AcDbArc
 50
36.4225205424
 51
143.576019041
  0
ARC
  5
27D
330
1F
100
AcDbEntity
  8
0
  6
Continuous
 62
     7
370
    25
100
AcDbCircle
 10
23.15
 20
-23.15
 30
0.0
 40
4.000000000000007
100
AcDbArc
 50
90.0
 51
180.0
  0
ARC
  5
27E
330
1F
100
AcDbEntity
  8
0
  6
Continuous
 62
     7
370
    25
100
AcDbCircle
 10
25.7
 20
-16.65
 30
0.0
 40
2.499999999999996
100
AcDbArc
 50
270.0
 51
0.0
  0
ARC
  5
27F
330
1F
100
AcDbEntity
  8
0
  6
Continuous
 62
     7
370
    25
100
AcDbCircle
 10
16.65
 20
25.7
 30
0.0
 40
2.499999999999996
100
AcDbArc
 50
0.0
 51
90.0
  0
ARC
  5
280
330
1F
100
AcDbEntity
  8
0
  6
Continuous
 62
     7
370
    25
100
AcDbCircle
 10
16.65
 20
-25.7
 30
0.0
 40
2.499999999999996
100
AcDbArc
 50
270.0
 51
0.0
  0
ARC
  5
281
330
1F
100
AcDbEntity
  8
0
  6
Continuous
 62
     7
370
    25
100
AcDbCircle
 10
-23.15
 20
-23.15
 30
0.0
 40
4.000000000000007
100
AcDbArc
 50
0.0
 51
90.0
  0
ARC
  5
282
330
1F
100
AcDbEntity
  8
0
  6
Continuous
 62
     7
370
    25
100
AcDbCircle
 10
-16.65
 20
25.7
 30
0.0
 40
2.499999999999996
100
AcDbArc
 50
90.0
 51
180.0
  0
ARC
  5
283
330
1F
100
AcDbEntity
  8
0
  6
Continuous
 62
     7
370
    25
100
AcDbCircle
 10
-16.65
 20
-25.7
 30
0.0
 40
2.499999999999996
100
AcDbArc
 50
180.0
 51
270.0
  0
ARC
  5
284
330
1F
100
AcDbEntity
  8
0
  6
Continuous
 62
     7
370
    25
100
AcDbCircle
 10
-23.15
 20
23.15
 30
0.0
 40
4.000000000000007
100
AcDbArc
 50
270.0
 51
0.0
  0
ARC
  5
285
330
1F
100
AcDbEntity
  8
0
  6
Continuous
 62
     7
370
    25
100
AcDbCircle
 10
-25.7
 20
16.65
 30
0.0
 40
2.499999999999996
100
AcDbArc
 50
90.0
 51
180.0
  0
ARC
  5
286
330
1F
100
AcDbEntity
  8
0
  6
Continuous
 62
     7
370
    25
100
AcDbCircle
 10
-25.7
 20
-16.65
 30
0.0
 40
2.499999999999996
100
AcDbArc
 50
180.0
 51
270.0
  0
ARC
  5
287
330
1F
100
AcDbEntity
  8
0
  6
Continuous
 62
     7
370
    25
100
AcDbCircle
 10
25.7
 20
16.65
 30
0.0
 40
2.499999999999996
100
AcDbArc
 50
0.0
 51
90.0
  0
ARC
  5
288
330
1F
100
AcDbEntity
  8
0
  6
Continuous
 62
     7
370
    25
100
AcDbCircle
 10
23.15
 20
23.15
 30
0.0
 40
4.000000000000007
100
AcDbArc
 50
180.0
 51
270.0
  0
ENDSEC
  0
SECTION
  2
OBJECTS
  0
DICTIONARY
  5
C
330
0
100
AcDbDictionary
281
     1
  3
ACAD_GROUP
350
D
  3
ACAD_LAYOUT
350
1A
  3
ACAD_MLINESTYLE
350
17
  3
ACAD_PLOTSETTINGS
350
19
  3
ACAD_PLOTSTYLENAME
350
E
  3
ACAD_SCALELIST
350
47
  3
DWGPROPS
350
289
  0
DICTIONARY
  5
D
102
{ACAD_REACTORS
330
C
102
}
330
C
100
AcDbDictionary
281
     1
  0
DICTIONARY
  5
1A
102
{ACAD_REACTORS
330
C
102
}
330
C
100
AcDbDictionary
281
     1
  3
Layout1
350
1E
  3
Layout2
350
26
  3
Model
350
22
  0
DICTIONARY
  5
17
102
{ACAD_REACTORS
330
C
102
}
330
C
100
AcDbDictionary
281
     1
  3
Standard
350
18
  0
DICTIONARY
  5
19
102
{ACAD_REACTORS
330
C
102
}
330
C
100
AcDbDictionary
281
     1
  0
ACDBDICTIONARYWDFLT
  5
E
102
{ACAD_REACTORS
330
C
102
}
330
C
100
AcDbDictionary
281
     1
  3
Normal
350
F
100
AcDbDictionaryWithDefault
340
F
  0
DICTIONARY
  5
47
102
{ACAD_REACTORS
330
C
102
}
330
C
100
AcDbDictionary
281
     1
  3
A0
350
48
  3
A1
350
49
  3
A2
350
4A
  3
A3
350
4B
  3
A4
350
4C
  3
A5
350
4D
  3
A6
350
4E
  3
A7
350
4F
  3
A8
350
50
  3
A9
350
51
  3
B0
350
52
  3
B1
350
53
  3
B2
350
54
  3
B3
350
55
  3
B4
350
56
  3
B5
350
57
  3
B6
350
58
  0
XRECORD
  5
289
102
{ACAD_REACTORS
330
C
102
}
330
C
100
AcDbXrecord
280
     1
  1
DWGPROPS COOKIE
  2

  3

  4

  6

  7

  8
minay
  9

300
=
301
=
302
=
303
=
304
=
305
=
306
=
307
=
308
=
309
=
 40
0.0
 41
2461147.528294121
 42
2461147.528341331
  1

 90
        0
  0
LAYOUT
  5
1E
102
{ACAD_REACTORS
330
1A
102
}
330
1A
100
AcDbPlotSettings
  1

  2
none_device
  4

  6

 40
0.0
 41
0.0
 42
0.0
 43
0.0
 44
0.0
 45
0.0
 46
0.0
 47
0.0
 48
0.0
 49
0.0
140
0.0
141
0.0
142
1.0
143
1.0
 70
   688
 72
     1
 73
     0
 74
     5
  7

 75
    16
147
1.0
148
0.0
149
0.0
100
AcDbLayout
  1
Layout1
 70
     1
 71
     1
 10
0.0
 20
0.0
 11
420.0
 21
297.0
 12
0.0
 22
0.0
 32
0.0
 14
1.0000000000E+20
 24
1.0000000000E+20
 34
1.0000000000E+20
 15
-1.0000000000E+20
 25
-1.0000000000E+20
 35
-1.0000000000E+20
146
0.0
 13
0.0
 23
0.0
 33
0.0
 16
1.0
 26
0.0
 36
0.0
 17
0.0
 27
1.0
 37
0.0
 76
     0
330
1B
  0
LAYOUT
  5
26
102
{ACAD_REACTORS
330
1A
102
}
330
1A
100
AcDbPlotSettings
  1

  2
none_device
  4

  6

 40
0.0
 41
0.0
 42
0.0
 43
0.0
 44
0.0
 45
0.0
 46
0.0
 47
0.0
 48
0.0
 49
0.0
140
0.0
141
0.0
142
1.0
143
1.0
 70
   688
 72
     1
 73
     0
 74
     5
  7

 75
    16
147
1.0
148
0.0
149
0.0
100
AcDbLayout
  1
Layout2
 70
     1
 71
     2
 10
0.0
 20
0.0
 11
0.0
 21
0.0
 12
0.0
 22
0.0
 32
0.0
 14
0.0
 24
0.0
 34
0.0
 15
0.0
 25
0.0
 35
0.0
146
0.0
 13
0.0
 23
0.0
 33
0.0
 16
1.0
 26
0.0
 36
0.0
 17
0.0
 27
1.0
 37
0.0
 76
     0
330
23
  0
LAYOUT
  5
22
102
{ACAD_REACTORS
330
1A
102
}
330
1A
100
AcDbPlotSettings
  1

  2
none_device
  4
ANSI_A_(11.00_x_8.50_Inches)
  6

 40
6.35
 41
19.05
 42
6.35000508
 43
19.05000254
 44
279.4
 45
215.9
 46
133.34999746
 47
89.1009497863
 48
0.0
 49
0.0
140
0.0
141
0.0
142
0.1489215795
143
1.0
 70
  1696
 72
     0
 73
     0
 74
     0
  7

 75
     0
147
0.0179189148
148
-1300.4909072572
149
0.0
100
AcDbLayout
  1
Model
 70
     1
 71
     0
 10
0.0
 20
0.0
 11
420.0
 21
297.0
 12
0.0
 22
0.0
 32
0.0
 14
-28.2
 24
-28.30625
 34
0.0
 15
28.2
 25
28.2
 35
0.0
146
0.0
 13
0.0
 23
0.0
 33
0.0
 16
1.0
 26
0.0
 36
0.0
 17
0.0
 27
1.0
 37
0.0
 76
     0
330
1F
331
29
  0
MLINESTYLE
  5
18
102
{ACAD_REACTORS
330
17
102
}
330
17
100
AcDbMlineStyle
  2
Standard
 70
     0
  3

 62
   256
 51
90.0
 52
90.0
 71
     2
 49
0.5
 62
   256
  6
BYLAYER
 49
-0.5
 62
   256
  6
BYLAYER
  0
ACDBPLACEHOLDER
  5
F
102
{ACAD_REACTORS
330
E
102
}
330
E
  0
SCALE
  5
48
102
{ACAD_REACTORS
330
47
102
}
330
47
100
AcDbScale
 70
     0
300
1:1
140
1.0
141
1.0
290
     1
  0
SCALE
  5
49
102
{ACAD_REACTORS
330
47
102
}
330
47
100
AcDbScale
 70
     0
300
1:2
140
1.0
141
2.0
290
     0
  0
SCALE
  5
4A
102
{ACAD_REACTORS
330
47
102
}
330
47
100
AcDbScale
 70
     0
300
1:4
140
1.0
141
4.0
290
     0
  0
SCALE
  5
4B
102
{ACAD_REACTORS
330
47
102
}
330
47
100
AcDbScale
 70
     0
300
1:5
140
1.0
141
5.0
290
     0
  0
SCALE
  5
4C
102
{ACAD_REACTORS
330
47
102
}
330
47
100
AcDbScale
 70
     0
300
1:8
140
1.0
141
8.0
290
     0
  0
SCALE
  5
4D
102
{ACAD_REACTORS
330
47
102
}
330
47
100
AcDbScale
 70
     0
300
1:10
140
1.0
141
10.0
290
     0
  0
SCALE
  5
4E
102
{ACAD_REACTORS
330
47
102
}
330
47
100
AcDbScale
 70
     0
300
1:16
140
1.0
141
16.0
290
     0
  0
SCALE
  5
4F
102
{ACAD_REACTORS
330
47
102
}
330
47
100
AcDbScale
 70
     0
300
1:20
140
1.0
141
20.0
290
     0
  0
SCALE
  5
50
102
{ACAD_REACTORS
330
47
102
}
330
47
100
AcDbScale
 70
     0
300
1:30
140
1.0
141
30.0
290
     0
  0
SCALE
  5
51
102
{ACAD_REACTORS
330
47
102
}
330
47
100
AcDbScale
 70
     0
300
1:40
140
1.0
141
40.0
290
     0
  0
SCALE
  5
52
102
{ACAD_REACTORS
330
47
102
}
330
47
100
AcDbScale
 70
     0
300
1:50
140
1.0
141
50.0
290
     0
  0
SCALE
  5
53
102
{ACAD_REACTORS
330
47
102
}
330
47
100
AcDbScale
 70
     0
300
1:100
140
1.0
141
100.0
290
     0
  0
SCALE
  5
54
102
{ACAD_REACTORS
330
47
102
}
330
47
100
AcDbScale
 70
     0
300
2:1
140
2.0
141
1.0
290
     0
  0
SCALE
  5
55
102
{ACAD_REACTORS
330
47
102
}
330
47
100
AcDbScale
 70
     0
300
4:1
140
4.0
141
1.0
290
     0
  0
SCALE
  5
56
102
{ACAD_REACTORS
330
47
102
}
330
47
100
AcDbScale
 70
     0
300
8:1
140
8.0
141
1.0
290
     0
  0
SCALE
  5
57
102
{ACAD_REACTORS
330
47
102
}
330
47
100
AcDbScale
 70
     0
300
10:1
140
10.0
141
1.0
290
     0
  0
SCALE
  5
58
102
{ACAD_REACTORS
330
47
102
}
330
47
100
AcDbScale
 70
     0
300
100:1
140
100.0
141
1.0
290
     0
  0
ENDSEC
  0
EOF
